<svg xmlns="http://www.w3.org/2000/svg" viewBox="0 0 120 120"><defs><style>.cls-1{fill:#b9f4cd;}.cls-2{fill:#1a9e48;}.cls-3{fill:#22d360;}.cls-4{fill:#ff9c6c;}.cls-5{fill:#ffc190;}.cls-6{fill:#39424e;}</style></defs><g id="Layer_2" data-name="Layer 2"><g id="Layer_1-2" data-name="Layer 1"><path class="cls-1" d="M60,36.15A23.85,23.85,0,0,0,41.44,75H78.56A23.85,23.85,0,0,0,60,36.15Z"/><path class="cls-2" d="M72.38,71.31h-7l7,9.07A24,24,0,0,0,78.56,75,7,7,0,0,0,72.38,71.31Z"/><path class="cls-3" d="M65.35,71.31H47.62A7,7,0,0,0,41.44,75a23.84,23.84,0,0,0,30.94,5.4v-2a7,7,0,0,0-7-7Z"/><path class="cls-4" d="M60,43.18v21.1a10.55,10.55,0,1,0,0-21.1Z"/><path class="cls-5" d="M63.52,53.73c0-5.82-1.58-10.55-3.52-10.55a10.55,10.55,0,1,0,0,21.1C61.94,64.28,63.52,59.56,63.52,53.73Z"/><path class="cls-2" d="M60,97.91v20.33a10.17,10.17,0,1,0,0-20.33Z"/><path class="cls-3" d="M63.13,108.08c0-5.62-1.4-10.17-3.13-10.17a10.17,10.17,0,1,0,0,20.33C61.73,118.24,63.13,113.69,63.13,108.08Z"/><path class="cls-2" d="M86.81,86.81l14.37,14.37A10.16,10.16,0,0,0,86.81,86.81Z"/><path class="cls-3" d="M96.21,91.78c-4-4-8.18-6.2-9.4-5a10.16,10.16,0,0,0,14.37,14.37c1.23-1.22-1-5.43-5-9.4Z"/><path class="cls-2" d="M97.91,60h20.33a10.17,10.17,0,1,0-20.33,0Z"/><path class="cls-3" d="M108.08,56.87c-5.62,0-10.17,1.4-10.17,3.13a10.17,10.17,0,1,0,20.33,0C118.24,58.27,113.69,56.87,108.08,56.87Z"/><path class="cls-2" d="M86.81,33.19l14.37-14.37A10.16,10.16,0,0,0,86.81,33.19Z"/><path class="cls-3" d="M91.78,23.79c-4,4-6.2,8.18-5,9.4a10.16,10.16,0,1,0,14.37-14.37C100,17.59,95.75,19.82,91.78,23.79Z"/><path class="cls-2" d="M60,22.09V1.76a10.17,10.17,0,1,0,0,20.33Z"/><path class="cls-3" d="M56.87,11.92c0,5.62,1.4,10.17,3.13,10.17A10.17,10.17,0,1,0,60,1.76C58.27,1.76,56.87,6.31,56.87,11.92Z"/><path class="cls-2" d="M33.19,33.19,18.82,18.82A10.16,10.16,0,0,0,33.19,33.19Z"/><path class="cls-3" d="M23.79,28.22c4,4,8.18,6.2,9.4,5A10.16,10.16,0,0,0,18.82,18.82C17.59,20,19.82,24.25,23.79,28.22Z"/><path class="cls-2" d="M22.09,60H1.76a10.17,10.17,0,1,0,20.33,0Z"/><path class="cls-3" d="M11.92,63.13c5.62,0,10.17-1.4,10.17-3.13A10.17,10.17,0,1,0,1.76,60C1.76,61.73,6.31,63.13,11.92,63.13Z"/><path class="cls-2" d="M33.19,86.81,18.82,101.18A10.16,10.16,0,0,0,33.19,86.81Z"/><path class="cls-3" d="M28.22,96.21c4-4,6.2-8.18,5-9.4a10.16,10.16,0,0,0-14.37,14.37c1.22,1.23,5.43-1,9.4-5Z"/><circle class="cls-6" cx="60" cy="90.88" r="1.76"/><path class="cls-6" d="M83.08,80.59a1.76,1.76,0,1,0,0,2.49A1.77,1.77,0,0,0,83.08,80.59Z"/><circle class="cls-6" cx="90.88" cy="60" r="1.76"/><path class="cls-6" d="M83.08,39.41a1.76,1.76,0,1,0-2.49,0A1.77,1.77,0,0,0,83.08,39.41Z"/><circle class="cls-6" cx="60" cy="29.12" r="1.76"/><circle class="cls-6" cx="38.17" cy="38.17" r="1.76"/><circle class="cls-6" cx="29.12" cy="60" r="1.76"/><path class="cls-6" d="M36.92,80.59a1.76,1.76,0,1,0,2.49,0A1.77,1.77,0,0,0,36.92,80.59Z"/><path class="cls-6" d="M72.3,53.73A12.3,12.3,0,1,0,60,66,12.32,12.32,0,0,0,72.3,53.73Zm-21.09,0A8.79,8.79,0,1,1,60,62.52,8.8,8.8,0,0,1,51.21,53.73Z"/><path class="cls-6" d="M60,34.39A25.61,25.61,0,0,0,36,69a1.76,1.76,0,1,0,3.29-1.24A22.1,22.1,0,1,1,78.51,72a8.8,8.8,0,0,0-6.13-2.49H47.62a8.8,8.8,0,0,0-7.72,4.58,1.78,1.78,0,0,0,.17,2,25.59,25.59,0,0,0,39.72.15,1.79,1.79,0,0,0,.25-.31A25.59,25.59,0,0,0,60,34.39Zm0,47.7a22,22,0,0,1-16.34-7.23,5.25,5.25,0,0,1,4-1.79H72.38a5.29,5.29,0,0,1,4,1.78A22,22,0,0,1,60,82.09Z"/><path class="cls-6" d="M60,96.15a11.93,11.93,0,1,0,11.92,11.93A11.94,11.94,0,0,0,60,96.15Zm0,20.33a8.41,8.41,0,1,1,8.41-8.4A8.41,8.41,0,0,1,60,116.48Z"/><path class="cls-6" d="M60,23.85A11.93,11.93,0,1,0,48.08,11.92,11.94,11.94,0,0,0,60,23.85ZM60,3.52a8.41,8.41,0,1,1-8.41,8.4A8.41,8.41,0,0,1,60,3.52Z"/><path class="cls-6" d="M85.56,85.56a11.93,11.93,0,1,0,16.87,0A11.94,11.94,0,0,0,85.56,85.56ZM99.94,99.94a8.41,8.41,0,1,1,0-11.89A8.41,8.41,0,0,1,99.94,99.94Z"/><path class="cls-6" d="M34.44,34.44a11.93,11.93,0,1,0-16.87,0A11.94,11.94,0,0,0,34.44,34.44ZM20.06,20.06a8.41,8.41,0,1,1,0,11.89A8.41,8.41,0,0,1,20.06,20.06Z"/><path class="cls-6" d="M102.43,34.44a11.93,11.93,0,1,0-16.87,0A11.94,11.94,0,0,0,102.43,34.44ZM88.05,20.06a8.41,8.41,0,1,1,0,11.89,8.41,8.41,0,0,1,0-11.89Z"/><path class="cls-6" d="M17.57,85.56a11.93,11.93,0,1,0,16.87,0A11.94,11.94,0,0,0,17.57,85.56ZM32,99.94a8.41,8.41,0,1,1,0-11.89A8.41,8.41,0,0,1,32,99.94Z"/><path class="cls-6" d="M108.08,48.08A11.92,11.92,0,1,0,120,60,11.94,11.94,0,0,0,108.08,48.08Zm0,20.33a8.41,8.41,0,1,1,8.4-8.41A8.42,8.42,0,0,1,108.08,68.41Z"/><path class="cls-6" d="M23.85,60A11.93,11.93,0,1,0,11.92,71.92,11.94,11.94,0,0,0,23.85,60ZM11.92,68.41A8.41,8.41,0,1,1,20.33,60,8.41,8.41,0,0,1,11.92,68.41Z"/></g></g></svg>