<svg xmlns="http://www.w3.org/2000/svg" viewBox="0 0 120 120"><defs><style>.cls-1{fill:#1ba94c;}.cls-2{fill:#178c40;}.cls-3{fill:#b9f4cd;}.cls-4{fill:#fff;}.cls-5{fill:#22d360;}.cls-6{fill:#ff605c;}.cls-7{fill:#ffbd44;}.cls-8{fill:#00ca4e;}.cls-9{fill:#ffc328;}.cls-10{fill:#f78e36;}.cls-11{fill:#39424e;}</style></defs><g id="Layer_2" data-name="Layer 2"><g id="Layer_1-2" data-name="Layer 1"><path class="cls-1" d="M118.24,18.39H1.76V8.55a7,7,0,0,1,7-7H111.21a7,7,0,0,1,7,7Z"/><path class="cls-2" d="M111.21,1.52V18.39h7V8.55A7,7,0,0,0,111.21,1.52Z"/><path class="cls-3" d="M118.24,18.39v93.06a7,7,0,0,1-7,7H8.79a7,7,0,0,1-7-7V18.39Z"/><path class="cls-4" d="M118.24,66.9v44.55a7,7,0,0,1-7,7H8.79a7,7,0,0,1-7-7V66.9Z"/><path class="cls-5" d="M111.21,18.39V118.48a7,7,0,0,0,7-7V18.39Z"/><circle class="cls-6" cx="13.01" cy="10.04" r="3.52"/><circle class="cls-7" cx="26.64" cy="10.04" r="3.52"/><circle class="cls-8" cx="40.27" cy="10.04" r="3.52"/><path class="cls-1" d="M89.65,55.05h-11a3.52,3.52,0,0,1,0-7h11a3.52,3.52,0,0,1,0,7Z"/><path class="cls-9" d="M107.7,69.11H78.63a3.52,3.52,0,0,1,0-7H107.7a3.52,3.52,0,0,1,0,7Z"/><path class="cls-10" d="M99.06,83.17H78.63a3.52,3.52,0,0,1,0-7H99.06a3.52,3.52,0,1,1,0,7Z"/><path class="cls-11" d="M111.21,0h-6.15a1.75,1.75,0,1,0,0,3.5h6.15a5.27,5.27,0,0,1,5.27,5.25v8.06H3.52V8.75A5.27,5.27,0,0,1,8.79,3.5H97.34a1.75,1.75,0,1,0,0-3.5H8.79A8.78,8.78,0,0,0,0,8.75V45a1.76,1.76,0,0,0,3.52,0V20.31h113v77a1.76,1.76,0,0,0,3.52,0V8.75A8.78,8.78,0,0,0,111.21,0Z"/><path class="cls-11" d="M118.24,104.94a1.76,1.76,0,0,0-1.76,1.75v4.56a5.27,5.27,0,0,1-5.27,5.25H8.79a5.27,5.27,0,0,1-5.27-5.25V52.5A1.76,1.76,0,0,0,0,52.5v58.75A8.78,8.78,0,0,0,8.79,120H111.21a8.78,8.78,0,0,0,8.79-8.75v-4.56A1.76,1.76,0,0,0,118.24,104.94Z"/><path class="cls-11" d="M27.43,55a1.77,1.77,0,0,0-2.49,0L14.38,65.49a1.74,1.74,0,0,0,0,2.48L24.8,78.35a1.75,1.75,0,0,0,1.24.51,1.79,1.79,0,0,0,1.25-.51,1.76,1.76,0,0,0,0-2.48l-9.18-9.14,9.32-9.28a1.76,1.76,0,0,0,0-2.48Z"/><path class="cls-11" d="M48.06,78.35a1.79,1.79,0,0,0,1.25.51,1.75,1.75,0,0,0,1.24-.51L61,68a1.74,1.74,0,0,0,0-2.48L50.41,55a1.76,1.76,0,0,0-2.48,0,1.74,1.74,0,0,0,0,2.48l9.32,9.28-9.18,9.14a1.75,1.75,0,0,0,0,2.48Z"/><path class="cls-11" d="M30.94,84.8a1.77,1.77,0,0,0,1.64-1.13L45.07,50.89a1.76,1.76,0,0,0-3.29-1.24L29.29,82.43a1.77,1.77,0,0,0,1.65,2.37Z"/><path class="cls-11" d="M7.74,10.24A5.27,5.27,0,1,0,13,5,5.26,5.26,0,0,0,7.74,10.24Zm7,0A1.76,1.76,0,1,1,13,8.49,1.75,1.75,0,0,1,14.77,10.24Z"/><path class="cls-11" d="M21.37,10.24A5.27,5.27,0,1,0,26.64,5,5.26,5.26,0,0,0,21.37,10.24Zm7,0a1.76,1.76,0,1,1-1.76-1.75A1.75,1.75,0,0,1,28.4,10.24Z"/><path class="cls-11" d="M35,10.24A5.27,5.27,0,1,0,40.27,5,5.26,5.26,0,0,0,35,10.24Zm7,0a1.76,1.76,0,1,1-1.76-1.75A1.75,1.75,0,0,1,42,10.24Z"/><path class="cls-11" d="M78.63,56.82h11a5.26,5.26,0,1,0,0-10.51h-11a5.26,5.26,0,1,0,0,10.51Zm0-7h11a1.76,1.76,0,1,1,0,3.51h-11a1.76,1.76,0,0,1,0-3.51Z"/><path class="cls-11" d="M78.63,70.82H107.7a5.25,5.25,0,1,0,0-10.5H78.63a5.25,5.25,0,1,0,0,10.5Zm0-7H107.7a1.75,1.75,0,1,1,0,3.5H78.63a1.75,1.75,0,0,1,0-3.5Z"/><path class="cls-11" d="M78.63,84.83H99.06a5.25,5.25,0,1,0,0-10.5H78.63a5.25,5.25,0,1,0,0,10.5Zm0-7H99.06a1.75,1.75,0,1,1,0,3.5H78.63a1.75,1.75,0,0,1,0-3.5Z"/></g></g></svg>