<svg xmlns="http://www.w3.org/2000/svg" viewBox="0 0 500 499.79"><defs><style>.cls-1{fill:#39424e;}.cls-2{fill:#272f38;}.cls-3{fill:#ff605c;}.cls-4{fill:#ffbd44;}.cls-5{fill:#00ca4e;}.cls-6{fill:#738f93;}.cls-7{fill:#fff;}.cls-8{fill:#ffc190;}.cls-9{fill:#a3b6b7;}.cls-10{fill:#dd3131;}.cls-11{fill:#181e23;}</style></defs><g id="Layer_2" data-name="Layer 2"><g id="Layer_1-2" data-name="Layer 1"><rect class="cls-1" width="500" height="427.45" rx="12"/><path class="cls-2" d="M12,0H488a12,12,0,0,1,12,12V32a0,0,0,0,1,0,0H0a0,0,0,0,1,0,0V12A12,12,0,0,1,12,0Z"/><circle class="cls-3" cx="32.39" cy="16" r="9.15"/><circle class="cls-4" cx="57.66" cy="16" r="9.15"/><circle class="cls-5" cx="82.93" cy="16" r="9.15"/><path class="cls-6" d="M42.27,74.49h-2l-1.38,4.13h2.66l-.2,1.13H38.51l-1,3.11H36.28l1-3.11h-3l-1,3.11H32.07l1-3.11H31.29l.2-1.13h2l1.38-4.13H32.21l.2-1.13h2.86l1-3.1h1.17l-1,3.1h3l1.05-3.1H41.7l-1.05,3.1h1.82Zm-4.55,4.13,1.38-4.13h-3l-1.38,4.13Z"/><path class="cls-6" d="M63.14,70.52c-1.6,0-2.52.66-2.76,2l-.09.49H65l-.19,1.15H60.09l-1.58,9a3.8,3.8,0,0,1-1.33,2.43,4.37,4.37,0,0,1-2.79.84,7.19,7.19,0,0,1-1.93-.25l.2-1.15a6.57,6.57,0,0,0,1.76.23,3.3,3.3,0,0,0,1.89-.47,2.22,2.22,0,0,0,.87-1.53l1.6-9.14H56.06l.2-1.15H59l.07-.38a3.78,3.78,0,0,1,1.36-2.42,4.36,4.36,0,0,1,2.78-.84,8.09,8.09,0,0,1,2.45.38l-.22,1.19A5.94,5.94,0,0,0,63.14,70.52Z"/><path class="cls-6" d="M73.38,72.78c1.63,0,2.28,1,1.94,2.9l-1.26,7.18H72.75l1.22-7a2.28,2.28,0,0,0-.09-1.48,1.12,1.12,0,0,0-1.06-.46,3,3,0,0,0-1.66.54,10.94,10.94,0,0,0-2,1.87L68,82.86H66.66L68.41,73h1l-.16,2.31Q71.21,72.78,73.38,72.78Z"/><path class="cls-6" d="M98.33,73H99.6a42.1,42.1,0,0,1-3.24,9.9H94.87l-.7-4.5-2.29,4.5H90.35A36.87,36.87,0,0,1,90.6,73h1.3a44.22,44.22,0,0,0-.49,8.68l3-5.81h.45l.92,5.84A49.71,49.71,0,0,0,98.33,73Z"/><path class="cls-6" d="M105.76,78.92a7.15,7.15,0,0,1-2.86-.61c0,.36,0,.64,0,.83a3,3,0,0,0,.57,2.06,2.61,2.61,0,0,0,1.95.6,7.09,7.09,0,0,0,3.51-1l-.2,1.31a7.69,7.69,0,0,1-3.61.92q-3.6,0-3.6-3.74a6.81,6.81,0,0,1,1.65-4.59,5.32,5.32,0,0,1,4.21-1.93,3.28,3.28,0,0,1,2.34.73,2.58,2.58,0,0,1,.76,1.95A2.94,2.94,0,0,1,109.16,78,5.71,5.71,0,0,1,105.76,78.92Zm1.35-5a3.81,3.81,0,0,0-2.54.88,4.86,4.86,0,0,0-1.46,2.34,7,7,0,0,0,2.81.58,4.12,4.12,0,0,0,2.31-.54,1.85,1.85,0,0,0,.84-1.66C109.07,74.51,108.42,74,107.11,74Z"/><path class="cls-6" d="M119,81.8a4.88,4.88,0,0,0,2.47-.7l-.2,1.28a5.84,5.84,0,0,1-2.66.66,2.59,2.59,0,0,1-2.33-1A4.25,4.25,0,0,1,116,78.9l1.44-8.17h-3.67l.22-1.19h5l-1.63,9.24C117,80.79,117.52,81.8,119,81.8Z"/><path class="cls-6" d="M131.89,76.54a2.44,2.44,0,0,0-.23-2,2.12,2.12,0,0,0-1.73-.61A3.4,3.4,0,0,0,127,75.41,6.43,6.43,0,0,0,126,79.28a2.64,2.64,0,0,0,.59,2,2.82,2.82,0,0,0,2,.57,6.65,6.65,0,0,0,3.51-1.08L131.84,82a7.14,7.14,0,0,1-3.62,1,3.68,3.68,0,0,1-2.69-.91,3.59,3.59,0,0,1-.93-2.69,7.28,7.28,0,0,1,1.57-4.74,4.86,4.86,0,0,1,3.93-1.92,3.26,3.26,0,0,1,2.6,1,3.17,3.17,0,0,1,.56,2.76Z"/><path class="cls-6" d="M139.26,83A3.05,3.05,0,0,1,136.65,82a4.44,4.44,0,0,1-.62-3.17,7.36,7.36,0,0,1,1.68-4.39,4.71,4.71,0,0,1,3.67-1.61,3.06,3.06,0,0,1,2.61,1.1,4.44,4.44,0,0,1,.63,3.15,7.36,7.36,0,0,1-1.68,4.39A4.74,4.74,0,0,1,139.26,83Zm.34-1.24c2.13,0,3.35-1.56,3.63-4.7a3.37,3.37,0,0,0-.32-2.37A2.16,2.16,0,0,0,141,74q-3.21,0-3.64,4.69a3.43,3.43,0,0,0,.33,2.38A2.15,2.15,0,0,0,139.6,81.8Z"/><path class="cls-6" d="M155.51,72.78c1.28,0,1.75,1,1.4,3l-1.26,7h-1.26L155.62,76a3.51,3.51,0,0,0,0-1.51.68.68,0,0,0-.73-.5q-1,0-2,1.56l-.06.31-1.26,7h-1.26L151.59,76c.22-1.31,0-2-.67-2s-1.34.59-2.07,1.76l-1.26,7.11h-1.26l1.75-9.9H149l-.07,1.8c.81-1.32,1.7-2,2.64-2s1.34.56,1.39,1.68A3.1,3.1,0,0,1,155.51,72.78Z"/><path class="cls-6" d="M163.36,78.92a7.11,7.11,0,0,1-2.86-.61c0,.36,0,.64,0,.83A3,3,0,0,0,161,81.2a2.61,2.61,0,0,0,1.95.6,7.15,7.15,0,0,0,3.51-1l-.2,1.31a7.72,7.72,0,0,1-3.61.92q-3.62,0-3.61-3.74a6.82,6.82,0,0,1,1.66-4.59,5.32,5.32,0,0,1,4.21-1.93,3.28,3.28,0,0,1,2.34.73,2.58,2.58,0,0,1,.76,1.95A2.94,2.94,0,0,1,166.76,78,5.73,5.73,0,0,1,163.36,78.92Zm1.35-5a3.79,3.79,0,0,0-2.54.88,4.86,4.86,0,0,0-1.46,2.34,7,7,0,0,0,2.81.58,4.06,4.06,0,0,0,2.3-.54,1.84,1.84,0,0,0,.85-1.66C166.67,74.51,166,74,164.71,74Z"/><path class="cls-6" d="M186.45,74.15l-.95,5.44a2.27,2.27,0,0,0,.18,1.68,1.89,1.89,0,0,0,1.6.53,6.36,6.36,0,0,0,2.38-.5l-.22,1.29A7.15,7.15,0,0,1,187,83a2.51,2.51,0,0,1-2.84-3.29l1-5.6h-2.45l.16-.86,2.5-.33.72-2.21h1l-.4,2.21h4.48l-.21,1.19Z"/><path class="cls-6" d="M196.86,83A3.05,3.05,0,0,1,194.25,82a4.35,4.35,0,0,1-.61-3.17,7.29,7.29,0,0,1,1.67-4.39A4.71,4.71,0,0,1,199,72.78a3.06,3.06,0,0,1,2.61,1.1,4.44,4.44,0,0,1,.63,3.15,7.36,7.36,0,0,1-1.68,4.39A4.72,4.72,0,0,1,196.86,83Zm.34-1.24c2.13,0,3.35-1.56,3.63-4.7a3.37,3.37,0,0,0-.32-2.37,2.16,2.16,0,0,0-1.87-.72q-3.21,0-3.64,4.69a3.43,3.43,0,0,0,.33,2.38A2.16,2.16,0,0,0,197.2,81.8Z"/><path class="cls-6" d="M224.54,75.45a7,7,0,0,0,.15-1.44c0-1.77-.77-2.65-2.29-2.65a3.32,3.32,0,0,0-2.5,1.13,6.67,6.67,0,0,0-1.54,2.71,11.36,11.36,0,0,0-.48,3.33,4.1,4.1,0,0,0,.59,2.49,2.25,2.25,0,0,0,1.89.75,8.4,8.4,0,0,0,4.11-1.23L224.22,82A9.46,9.46,0,0,1,220,83q-3.56,0-3.56-4.35a11.38,11.38,0,0,1,1.63-5.82,6.11,6.11,0,0,1,2-2,4.74,4.74,0,0,1,2.63-.78,3.26,3.26,0,0,1,2.52,1,3.91,3.91,0,0,1,.9,2.77,8.72,8.72,0,0,1-.15,1.62Z"/><path class="cls-6" d="M231.42,83A3.05,3.05,0,0,1,228.81,82a4.44,4.44,0,0,1-.62-3.17,7.36,7.36,0,0,1,1.68-4.39,4.71,4.71,0,0,1,3.67-1.61,3.06,3.06,0,0,1,2.61,1.1,4.44,4.44,0,0,1,.63,3.15,7.36,7.36,0,0,1-1.68,4.39A4.74,4.74,0,0,1,231.42,83Zm.34-1.24c2.13,0,3.35-1.56,3.63-4.7a3.37,3.37,0,0,0-.32-2.37A2.16,2.16,0,0,0,233.2,74q-3.21,0-3.64,4.69a3.43,3.43,0,0,0,.33,2.38A2.15,2.15,0,0,0,231.76,81.8Z"/><path class="cls-6" d="M248.07,69.54h1.31L247,82.86h-1l.07-1.74A3.87,3.87,0,0,1,242.74,83a2.86,2.86,0,0,1-2.24-.86,3.73,3.73,0,0,1-.77-2.54,8.62,8.62,0,0,1,1.32-4.85,4,4,0,0,1,3.43-2,2.57,2.57,0,0,1,2.72,1.68Zm-4.86,12.3a2.9,2.9,0,0,0,2.63-1.54,7.93,7.93,0,0,0,.89-4,2.54,2.54,0,0,0-.5-1.76,2,2,0,0,0-1.58-.55A2.86,2.86,0,0,0,242,75.51a7.92,7.92,0,0,0-.9,4,2.59,2.59,0,0,0,.5,1.76A2.1,2.1,0,0,0,243.21,81.84Z"/><path class="cls-6" d="M255.52,78.92a7.11,7.11,0,0,1-2.86-.61c0,.36,0,.64,0,.83a3,3,0,0,0,.57,2.06,2.61,2.61,0,0,0,1.95.6,7.09,7.09,0,0,0,3.51-1l-.2,1.31a7.69,7.69,0,0,1-3.61.92c-2.4,0-3.61-1.25-3.61-3.74a6.82,6.82,0,0,1,1.66-4.59,5.32,5.32,0,0,1,4.21-1.93,3.28,3.28,0,0,1,2.34.73,2.58,2.58,0,0,1,.76,1.95A2.94,2.94,0,0,1,258.92,78,5.71,5.71,0,0,1,255.52,78.92Zm1.35-5a3.81,3.81,0,0,0-2.54.88,4.86,4.86,0,0,0-1.46,2.34,7,7,0,0,0,2.81.58,4.06,4.06,0,0,0,2.3-.54,1.84,1.84,0,0,0,.85-1.66C258.83,74.51,258.18,74,256.87,74Z"/><path class="cls-6" d="M270.62,75.45a7,7,0,0,0,.15-1.44c0-1.77-.77-2.65-2.29-2.65a3.34,3.34,0,0,0-2.5,1.13,6.67,6.67,0,0,0-1.54,2.71,11.36,11.36,0,0,0-.48,3.33,4.1,4.1,0,0,0,.59,2.49,2.25,2.25,0,0,0,1.89.75,8.4,8.4,0,0,0,4.11-1.23L270.3,82A9.46,9.46,0,0,1,266.1,83q-3.56,0-3.56-4.35a11.38,11.38,0,0,1,1.63-5.82,6.11,6.11,0,0,1,2-2,4.74,4.74,0,0,1,2.63-.78,3.26,3.26,0,0,1,2.52,1,3.91,3.91,0,0,1,.9,2.77,8.72,8.72,0,0,1-.15,1.62Z"/><path class="cls-6" d="M280.45,72.78a10.78,10.78,0,0,1,2.79.36l-1.71,9.72h-1.31l.28-1.65A3.91,3.91,0,0,1,277.15,83,2.5,2.5,0,0,1,274.91,82a4.8,4.8,0,0,1-.49-3.09,7.14,7.14,0,0,1,1.83-4.51A5.62,5.62,0,0,1,280.45,72.78ZM281.1,78l.66-3.83a7.1,7.1,0,0,0-1.49-.17,4.05,4.05,0,0,0-3.14,1.25,5.88,5.88,0,0,0-1.34,3.56,3.88,3.88,0,0,0,.26,2.37,1.78,1.78,0,0,0,1.64.71C279.51,81.84,280.64,80.54,281.1,78Z"/><path class="cls-6" d="M291.36,72.78a2.83,2.83,0,0,1,2.24.87,3.71,3.71,0,0,1,.76,2.54A8.64,8.64,0,0,1,293.05,81a4,4,0,0,1-3.46,2,2.62,2.62,0,0,1-2.7-1.67L286,86.28H284.7L287.06,73h1L288,74.69A3.88,3.88,0,0,1,291.36,72.78Zm-1.93,9.06a2.9,2.9,0,0,0,2.65-1.54,7.89,7.89,0,0,0,.9-4,2.55,2.55,0,0,0-.51-1.76,2,2,0,0,0-1.58-.56,2.88,2.88,0,0,0-2.64,1.54,8.06,8.06,0,0,0-.89,4,2.56,2.56,0,0,0,.5,1.74A2,2,0,0,0,289.43,81.84Z"/><path class="cls-7" d="M38.93,108.87h1.9v13.32H39.39l-.3-1.62a3.26,3.26,0,0,1-3.06,1.8A3.32,3.32,0,0,1,33.22,121a6.06,6.06,0,0,1-1-3.71,6.41,6.41,0,0,1,1-3.83A3.27,3.27,0,0,1,36,112.11a3.3,3.3,0,0,1,2.9,1.48Zm-4.19,11a2,2,0,0,0,1.83.8,2.05,2.05,0,0,0,1.82-.76,4.62,4.62,0,0,0,.54-2.59,5.13,5.13,0,0,0-.54-2.73,2,2,0,0,0-1.82-.8,2.06,2.06,0,0,0-1.83.76,4.72,4.72,0,0,0-.53,2.59A5.25,5.25,0,0,0,34.74,119.88Z"/><path class="cls-7" d="M52.71,117c0,.42,0,.74,0,1h-7a3,3,0,0,0,.78,2,2.77,2.77,0,0,0,1.95.62,6.42,6.42,0,0,0,3.44-1v1.8a6.94,6.94,0,0,1-3.62,1,4.5,4.5,0,0,1-3.35-1.26,4.87,4.87,0,0,1-1.24-3.55,5.91,5.91,0,0,1,1.28-3.94,4.34,4.34,0,0,1,3.51-1.51,4,4,0,0,1,3.17,1.28A5.31,5.31,0,0,1,52.71,117Zm-4.41-3.12a2.81,2.81,0,0,0-1.89.55,2.87,2.87,0,0,0-.73,1.9h5a3.08,3.08,0,0,0-.64-1.91A2.35,2.35,0,0,0,48.3,113.87Z"/><path class="cls-7" d="M61.91,110.31q-2.19,0-2.19,1.53v.54h4.44V114H59.72v8.21H57.81V114H55.38v-1.6h2.43V112a3,3,0,0,1,1-2.41,4.29,4.29,0,0,1,2.85-.87,8.38,8.38,0,0,1,2.48.38v1.65A6.44,6.44,0,0,0,61.91,110.31Z"/><path class="cls-5" d="M85.6,112.29h1.85a34.37,34.37,0,0,1-1.49,9.9H83.73l-1-3.11-1,3.11H79.41a34.39,34.39,0,0,1-1.5-9.9h1.86a43.11,43.11,0,0,0,.88,8.32l1.76-5.31H83l1.77,5.31A43.11,43.11,0,0,0,85.6,112.29Z"/><path class="cls-5" d="M98.79,117c0,.42,0,.74,0,1h-7a3,3,0,0,0,.78,2,2.77,2.77,0,0,0,1.95.62,6.42,6.42,0,0,0,3.44-1v1.8a6.94,6.94,0,0,1-3.62,1A4.5,4.5,0,0,1,91,121.11a4.87,4.87,0,0,1-1.24-3.55A5.91,5.91,0,0,1,91,113.62a4.34,4.34,0,0,1,3.51-1.51,4,4,0,0,1,3.17,1.28A5.31,5.31,0,0,1,98.79,117Zm-4.41-3.12a2.81,2.81,0,0,0-1.89.55,2.87,2.87,0,0,0-.73,1.9h5a3.08,3.08,0,0,0-.64-1.91A2.35,2.35,0,0,0,94.38,113.87Z"/><path class="cls-5" d="M108.3,120.61a4.27,4.27,0,0,0,2.25-.67v1.76a5.57,5.57,0,0,1-2.61.67,3.43,3.43,0,0,1-2.66-1,4.47,4.47,0,0,1-.94-3.08v-7.69H101v-1.69h5.28v9.23C106.25,119.77,106.93,120.61,108.3,120.61Z"/><path class="cls-5" d="M119.8,115.87a2.1,2.1,0,0,0-.51-1.6,2.52,2.52,0,0,0-1.7-.47,2.47,2.47,0,0,0-2.08.77,4.53,4.53,0,0,0-.59,2.67,4.05,4.05,0,0,0,.64,2.61,2.8,2.8,0,0,0,2.22.76,6.2,6.2,0,0,0,3.35-1v1.8a6.91,6.91,0,0,1-3.62,1,4.38,4.38,0,0,1-3.34-1.3,4.92,4.92,0,0,1-1.25-3.56,5.85,5.85,0,0,1,1.25-4,4.3,4.3,0,0,1,3.43-1.43,4.36,4.36,0,0,1,3,1,3.47,3.47,0,0,1,1.18,2.71Z"/><path class="cls-5" d="M128.62,122.37a4.05,4.05,0,0,1-3.19-1.27,5.16,5.16,0,0,1-1.13-3.55,5.91,5.91,0,0,1,1.24-4,4.3,4.3,0,0,1,3.44-1.44,4,4,0,0,1,3.18,1.27,5.13,5.13,0,0,1,1.14,3.55,5.91,5.91,0,0,1-1.24,4A4.31,4.31,0,0,1,128.62,122.37Zm-1.77-2.5a2.93,2.93,0,0,0,3.89,0,6.46,6.46,0,0,0,0-5.26,2.93,2.93,0,0,0-3.89,0,6.56,6.56,0,0,0,0,5.26Z"/><path class="cls-5" d="M143.18,112.11a1.75,1.75,0,0,1,1.54.73,4.2,4.2,0,0,1,.51,2.35v7h-1.8v-6.77a2.84,2.84,0,0,0-.22-1.27.81.81,0,0,0-.78-.42,1.36,1.36,0,0,0-1.21.83c0,.13,0,.34,0,.63v7h-1.8v-6.77c0-1-.3-1.58-.9-1.58s-.94.37-1.3,1.11v7.24h-1.8v-9.9h1.35l.4,1.62a3.61,3.61,0,0,1,1-1.33,2,2,0,0,1,1.25-.47c.75,0,1.28.45,1.58,1.35A2.34,2.34,0,0,1,143.18,112.11Z"/><path class="cls-5" d="M156.39,117c0,.42,0,.74,0,1h-7a3.09,3.09,0,0,0,.79,2,2.77,2.77,0,0,0,2,.62,6.42,6.42,0,0,0,3.44-1v1.8a6.94,6.94,0,0,1-3.62,1,4.5,4.5,0,0,1-3.35-1.26,4.83,4.83,0,0,1-1.24-3.55,5.91,5.91,0,0,1,1.28-3.94,4.34,4.34,0,0,1,3.51-1.51,4,4,0,0,1,3.17,1.28A5.31,5.31,0,0,1,156.39,117ZM152,113.87a2.81,2.81,0,0,0-1.89.55,2.92,2.92,0,0,0-.74,1.9h5a3.08,3.08,0,0,0-.64-1.91A2.35,2.35,0,0,0,152,113.87Z"/><path class="cls-6" d="M175,116.61a11.85,11.85,0,0,0,2.83,8.1h-2a15,15,0,0,1-2.23-3.81A11.13,11.13,0,0,1,173,117a12.39,12.39,0,0,1,.69-4.21,14.4,14.4,0,0,1,2.23-3.89h2A11.36,11.36,0,0,0,175,116.61Z"/><path class="cls-4" d="M190.25,114h-4.18v4.84a1.79,1.79,0,0,0,.47,1.34,2.23,2.23,0,0,0,1.57.45,5.59,5.59,0,0,0,2.14-.42V122a7.64,7.64,0,0,1-2.34.38,3.89,3.89,0,0,1-2.79-.92,3.12,3.12,0,0,1-1-2.37V114H182v-1.22l2.15-.47.41-2.21h1.49v2.21h4.18Z"/><path class="cls-4" d="M197.74,122.37a4.05,4.05,0,0,1-3.19-1.27,5.16,5.16,0,0,1-1.13-3.55,5.91,5.91,0,0,1,1.24-4,4.3,4.3,0,0,1,3.44-1.44,4,4,0,0,1,3.18,1.27,5.13,5.13,0,0,1,1.14,3.55,5.91,5.91,0,0,1-1.24,4A4.31,4.31,0,0,1,197.74,122.37Zm-1.76-2.5a2.91,2.91,0,0,0,3.88,0,6.46,6.46,0,0,0,0-5.26,2.91,2.91,0,0,0-3.88,0,6.46,6.46,0,0,0,0,5.26Z"/><path class="cls-6" d="M209.28,117a11.9,11.9,0,0,0-2.83-8.1h2a14.64,14.64,0,0,1,2.22,3.81,10.91,10.91,0,0,1,.7,3.93,12.16,12.16,0,0,1-.7,4.21,14.09,14.09,0,0,1-2.22,3.89h-2A11.4,11.4,0,0,0,209.28,117Z"/><path class="cls-6" d="M219.57,112.29h2.78v3h-2.78Zm0,6.93h2.78v3h-2.78Z"/><path class="cls-6" d="M42.27,192.47h-2l-1.38,4.12h2.66l-.2,1.14H38.51l-1,3.11H36.28l1-3.11h-3l-1,3.11H32.07l1-3.11H31.29l.2-1.14h2l1.38-4.12H32.21l.2-1.13h2.86l1-3.1h1.17l-1,3.1h3l1.05-3.1H41.7l-1.05,3.1h1.82Zm-4.55,4.12,1.38-4.12h-3l-1.38,4.12Z"/><path class="cls-6" d="M62.77,194.52a2.43,2.43,0,0,0-.23-2,2.08,2.08,0,0,0-1.73-.61,3.4,3.4,0,0,0-2.89,1.44,6.43,6.43,0,0,0-1.05,3.87,2.66,2.66,0,0,0,.59,2,2.82,2.82,0,0,0,2,.57A6.65,6.65,0,0,0,63,198.7L62.72,200a7.06,7.06,0,0,1-3.62,1,3.68,3.68,0,0,1-2.69-.91,3.59,3.59,0,0,1-.93-2.69,7.28,7.28,0,0,1,1.57-4.74A4.86,4.86,0,0,1,61,190.76a3.23,3.23,0,0,1,2.6,1,3.17,3.17,0,0,1,.56,2.76Z"/><path class="cls-6" d="M73.09,190.76a10.78,10.78,0,0,1,2.79.36l-1.71,9.72H72.85l.29-1.65A3.91,3.91,0,0,1,69.79,201,2.5,2.5,0,0,1,67.55,200a4.8,4.8,0,0,1-.49-3.09,7.14,7.14,0,0,1,1.83-4.51A5.62,5.62,0,0,1,73.09,190.76Zm.65,5.17.66-3.84a7.79,7.79,0,0,0-1.49-.16,4.05,4.05,0,0,0-3.14,1.25,5.88,5.88,0,0,0-1.34,3.56,3.83,3.83,0,0,0,.26,2.36,1.76,1.76,0,0,0,1.64.72C72.15,199.82,73.28,198.52,73.74,195.93Z"/><path class="cls-6" d="M84.46,199.78a4.91,4.91,0,0,0,2.47-.7l-.2,1.28a5.84,5.84,0,0,1-2.66.66,2.59,2.59,0,0,1-2.33-1,4.25,4.25,0,0,1-.32-3.11l1.44-8.17H79.19l.22-1.19h5l-1.62,9.24C82.39,198.77,83,199.78,84.46,199.78Z"/><path class="cls-6" d="M96,199.78a4.91,4.91,0,0,0,2.47-.7l-.2,1.28a5.84,5.84,0,0,1-2.66.66,2.59,2.59,0,0,1-2.33-1,4.25,4.25,0,0,1-.32-3.11l1.44-8.17H90.71l.22-1.19h5l-1.62,9.24C93.91,198.77,94.48,199.78,96,199.78Z"/><path class="cls-6" d="M107.5,199.78a4.91,4.91,0,0,0,2.47-.7l-.2,1.28a5.84,5.84,0,0,1-2.66.66q-3.39,0-2.65-4.14l.83-4.75h-3.65l.19-1.19h5l-1,5.82C105.44,198.77,106,199.78,107.5,199.78Zm.31-12.8-.4,2.18h-2l.39-2.18Z"/><path class="cls-6" d="M119.46,190.76c1.63,0,2.28,1,1.94,2.9l-1.26,7.18h-1.31l1.22-7a2.28,2.28,0,0,0-.09-1.48,1.12,1.12,0,0,0-1.06-.47,3,3,0,0,0-1.66.54,11.44,11.44,0,0,0-2,1.88l-1.15,6.51h-1.32l1.75-9.9h1l-.16,2.31Q117.27,190.76,119.46,190.76Z"/><path class="cls-6" d="M130.69,190.85a11.18,11.18,0,0,1,2.77.34l-1.46,8.3a5.26,5.26,0,0,1-2.36,3.57,8.86,8.86,0,0,1-5,1.29l.2-1.24a7.4,7.4,0,0,0,4.1-.94,3.68,3.68,0,0,0,1.71-2.5l.16-.9a3.92,3.92,0,0,1-3.31,1.71,2.55,2.55,0,0,1-2.27-1,4.41,4.41,0,0,1-.52-3,6.19,6.19,0,0,1,1.78-4.12A5.84,5.84,0,0,1,130.69,190.85Zm-2.7,8.44q2.72,0,3.38-3.63l.61-3.57a7.51,7.51,0,0,0-1.47-.16c-2.68,0-4.15,1.49-4.43,4.47a3.34,3.34,0,0,0,.28,2.22A1.83,1.83,0,0,0,128,199.29Z"/><path class="cls-8" d="M94,153.34a8.5,8.5,0,0,0-4.83,1.3v5.18H93v1.7H84.68v-1.7h2.59v-6.51h-2v-1.69h3.49l.36,2a6,6,0,0,1,2.23-1.73,6.38,6.38,0,0,1,2.71-.63Z"/><path class="cls-8" d="M105.2,156.31c0,.42,0,.74,0,1h-7a3.12,3.12,0,0,0,.79,2,2.76,2.76,0,0,0,2,.61,6.41,6.41,0,0,0,3.44-1v1.8a6.94,6.94,0,0,1-3.62,1,4.5,4.5,0,0,1-3.35-1.26,4.84,4.84,0,0,1-1.24-3.55A5.91,5.91,0,0,1,97.41,153a4.34,4.34,0,0,1,3.51-1.51,4,4,0,0,1,3.17,1.27A5.35,5.35,0,0,1,105.2,156.31Zm-4.41-3.11a2.75,2.75,0,0,0-1.89.55,2.87,2.87,0,0,0-.74,1.9h5a3.08,3.08,0,0,0-.64-1.91A2.35,2.35,0,0,0,100.79,153.2Z"/><path class="cls-8" d="M116,153.31h-4.18v4.84a1.77,1.77,0,0,0,.47,1.33,2.23,2.23,0,0,0,1.57.45,5.78,5.78,0,0,0,2.14-.41v1.8a7.64,7.64,0,0,1-2.34.38,3.89,3.89,0,0,1-2.79-.92,3.14,3.14,0,0,1-1-2.38v-5.09h-2.15v-1.23l2.15-.46.41-2.22h1.49v2.22H116Z"/><path class="cls-8" d="M125.92,151.62h1.91v9.9h-1.44l-.34-2.27a4.43,4.43,0,0,1-3.78,2.45,2.71,2.71,0,0,1-2-.78,3.21,3.21,0,0,1-.74-2.3v-7h1.9v6.76c0,1.13.51,1.7,1.53,1.7a2.26,2.26,0,0,0,1.37-.48,10.36,10.36,0,0,0,1.64-1.67Z"/><path class="cls-8" d="M140.09,153.34a8.5,8.5,0,0,0-4.83,1.3v5.18H139v1.7h-8.28v-1.7h2.59v-6.51h-2v-1.69h3.49l.36,2a6,6,0,0,1,2.23-1.73,6.38,6.38,0,0,1,2.71-.63Z"/><path class="cls-8" d="M148.15,151.44a2.68,2.68,0,0,1,2,.77,3.18,3.18,0,0,1,.75,2.3v7H149v-6.77c0-1.13-.51-1.69-1.53-1.69a2.34,2.34,0,0,0-1.37.47,10.84,10.84,0,0,0-1.63,1.67v6.32h-1.91v-9.9H144l.34,2.26A4.42,4.42,0,0,1,148.15,151.44Z"/><path class="cls-6" d="M167.57,147.12h2.29l-2.36,3.42H169v3h-2.77v-3Zm6.68,0-2.36,3.42h1.46v3h-2.77v-3l1.38-3.42Z"/><path class="cls-9" d="M184.17,151.62H186a34.72,34.72,0,0,1-1.49,9.9H182.3l-1.05-3.12-1,3.12H178a34.39,34.39,0,0,1-1.5-9.9h1.86a43.09,43.09,0,0,0,.88,8.31l1.76-5.31h.54l1.77,5.31A43.89,43.89,0,0,0,184.17,151.62Z"/><path class="cls-9" d="M197.36,156.31c0,.42,0,.74,0,1h-7a3.12,3.12,0,0,0,.79,2,2.76,2.76,0,0,0,1.95.61,6.41,6.41,0,0,0,3.44-1v1.8a6.94,6.94,0,0,1-3.62,1,4.5,4.5,0,0,1-3.35-1.26,4.84,4.84,0,0,1-1.24-3.55,5.91,5.91,0,0,1,1.28-3.94,4.34,4.34,0,0,1,3.51-1.51,4,4,0,0,1,3.17,1.27A5.35,5.35,0,0,1,197.36,156.31ZM193,153.2a2.75,2.75,0,0,0-1.89.55,2.87,2.87,0,0,0-.74,1.9h5a3.08,3.08,0,0,0-.64-1.91A2.35,2.35,0,0,0,193,153.2Z"/><path class="cls-9" d="M206.87,159.93a4.25,4.25,0,0,0,2.25-.66V161a5.69,5.69,0,0,1-2.61.67,3.4,3.4,0,0,1-2.66-1,4.43,4.43,0,0,1-.94-3.08v-7.68h-3.37V148.2h5.27v9.23C204.81,159.1,205.5,159.93,206.87,159.93Z"/><path class="cls-9" d="M218.37,155.2a2.05,2.05,0,0,0-.52-1.6,3.26,3.26,0,0,0-3.78.29,4.64,4.64,0,0,0-.58,2.68,4.09,4.09,0,0,0,.64,2.61,2.8,2.8,0,0,0,2.22.75,6.21,6.21,0,0,0,3.35-1v1.8a6.91,6.91,0,0,1-3.62,1,4.45,4.45,0,0,1-3.35-1.3,5,5,0,0,1-1.24-3.56,5.88,5.88,0,0,1,1.24-4,4.3,4.3,0,0,1,3.44-1.43,4.36,4.36,0,0,1,3,1.05,3.48,3.48,0,0,1,1.18,2.71Z"/><path class="cls-9" d="M227.19,161.7a4.08,4.08,0,0,1-3.19-1.27,5.19,5.19,0,0,1-1.13-3.56,5.9,5.9,0,0,1,1.24-4,4.3,4.3,0,0,1,3.44-1.44,4,4,0,0,1,3.18,1.27,5.12,5.12,0,0,1,1.14,3.55,6,6,0,0,1-1.24,4A4.31,4.31,0,0,1,227.19,161.7Zm-1.77-2.51a2.93,2.93,0,0,0,3.89,0,6.43,6.43,0,0,0,0-5.25,2.93,2.93,0,0,0-3.89,0,6.54,6.54,0,0,0,0,5.25Z"/><path class="cls-9" d="M241.75,151.44a1.75,1.75,0,0,1,1.54.73,4.14,4.14,0,0,1,.51,2.34v7H242v-6.77a2.78,2.78,0,0,0-.22-1.27.82.82,0,0,0-.79-.42,1.34,1.34,0,0,0-1.2.82c0,.14,0,.35,0,.63v7H238v-6.77q0-1.59-.9-1.59c-.51,0-.94.38-1.3,1.12v7.24H234v-9.9h1.35l.4,1.62a3.74,3.74,0,0,1,1-1.34,2,2,0,0,1,1.25-.46c.75,0,1.28.45,1.58,1.35A2.34,2.34,0,0,1,241.75,151.44Z"/><path class="cls-9" d="M255,156.31c0,.42,0,.74,0,1h-7a3.12,3.12,0,0,0,.79,2,2.75,2.75,0,0,0,1.95.61,6.41,6.41,0,0,0,3.44-1v1.8a6.94,6.94,0,0,1-3.62,1,4.5,4.5,0,0,1-3.35-1.26,4.84,4.84,0,0,1-1.24-3.55,5.91,5.91,0,0,1,1.28-3.94,4.34,4.34,0,0,1,3.51-1.51,4,4,0,0,1,3.17,1.27A5.35,5.35,0,0,1,255,156.31Zm-4.41-3.11a2.75,2.75,0,0,0-1.89.55,2.87,2.87,0,0,0-.74,1.9h5a3.08,3.08,0,0,0-.64-1.91A2.35,2.35,0,0,0,250.55,153.2Z"/><path class="cls-9" d="M277.3,153.31h-4.18v4.84a1.77,1.77,0,0,0,.47,1.33,2.23,2.23,0,0,0,1.57.45,5.78,5.78,0,0,0,2.14-.41v1.8a7.64,7.64,0,0,1-2.34.38,3.89,3.89,0,0,1-2.79-.92,3.14,3.14,0,0,1-.95-2.38v-5.09h-2.15v-1.23l2.15-.46.41-2.22h1.49v2.22h4.18Z"/><path class="cls-9" d="M284.79,161.7a4.08,4.08,0,0,1-3.19-1.27,5.19,5.19,0,0,1-1.13-3.56,5.9,5.9,0,0,1,1.24-4,4.3,4.3,0,0,1,3.44-1.44,4,4,0,0,1,3.18,1.27,5.12,5.12,0,0,1,1.14,3.55,6,6,0,0,1-1.24,4A4.31,4.31,0,0,1,284.79,161.7ZM283,159.19a2.93,2.93,0,0,0,3.89,0,6.43,6.43,0,0,0,0-5.25,2.93,2.93,0,0,0-3.89,0,6.54,6.54,0,0,0,0,5.25Z"/><path class="cls-6" d="M304.43,150.09v-3h2.77v3l-1.39,3.42h-2.28l2.35-3.42Zm4.39-3h2.77v3l-1.39,3.42h-2.28l2.36-3.42h-1.46Z"/><path class="cls-9" d="M335.73,155.07v1.69h-3.84v3.8H330.2v-3.8h-3.83v-1.69h3.83v-3.8h1.69v3.8Z"/><path class="cls-4" d="M357.94,153.31h-4.18v4.84a1.77,1.77,0,0,0,.47,1.33,2.23,2.23,0,0,0,1.57.45,5.78,5.78,0,0,0,2.14-.41v1.8a7.64,7.64,0,0,1-2.34.38,3.89,3.89,0,0,1-2.79-.92,3.14,3.14,0,0,1-.95-2.38v-5.09h-2.15v-1.23l2.15-.46.41-2.22h1.49v2.22h4.18Z"/><path class="cls-4" d="M365.43,161.7a4.08,4.08,0,0,1-3.19-1.27,5.19,5.19,0,0,1-1.13-3.56,5.9,5.9,0,0,1,1.24-4,4.3,4.3,0,0,1,3.44-1.44,4,4,0,0,1,3.18,1.27,5.12,5.12,0,0,1,1.14,3.55,6,6,0,0,1-1.24,4A4.31,4.31,0,0,1,365.43,161.7Zm-1.77-2.51a2.93,2.93,0,0,0,3.89,0,6.43,6.43,0,0,0,0-5.25,2.93,2.93,0,0,0-3.89,0,6.54,6.54,0,0,0,0,5.25Z"/><path class="cls-3" d="M39.5,269.41a1.76,1.76,0,0,1,1.54.73,4.2,4.2,0,0,1,.51,2.35v7h-1.8v-6.76a2.78,2.78,0,0,0-.22-1.27.81.81,0,0,0-.78-.42,1.35,1.35,0,0,0-1.21.82c0,.13,0,.34,0,.63v7h-1.8v-6.76q0-1.59-.9-1.59c-.51,0-.94.38-1.3,1.12v7.23h-1.8v-9.9h1.35l.4,1.62a3.69,3.69,0,0,1,1-1.33,2,2,0,0,1,1.24-.47,1.66,1.66,0,0,1,1.58,1.35A2.35,2.35,0,0,1,39.5,269.41Z"/><path class="cls-3" d="M52.71,274.29c0,.42,0,.74,0,1h-7a3.06,3.06,0,0,0,.78,2.05,2.76,2.76,0,0,0,1.95.61,6.33,6.33,0,0,0,3.44-1v1.81a7,7,0,0,1-3.62,1,4.5,4.5,0,0,1-3.35-1.26,4.84,4.84,0,0,1-1.24-3.54,5.91,5.91,0,0,1,1.28-3.94,4.35,4.35,0,0,1,3.51-1.52,4,4,0,0,1,3.17,1.28A5.31,5.31,0,0,1,52.71,274.29Zm-4.41-3.11a2.75,2.75,0,0,0-1.89.55,2.84,2.84,0,0,0-.73,1.9h5a3.06,3.06,0,0,0-.64-1.91A2.35,2.35,0,0,0,48.3,271.18Z"/><path class="cls-3" d="M55.79,277.14a8.82,8.82,0,0,0,3.53.77c1.52,0,2.28-.37,2.28-1.12a1,1,0,0,0-.6-.88,5.69,5.69,0,0,0-1.46-.47c-.57-.12-1.14-.25-1.71-.41a3.11,3.11,0,0,1-1.45-.86,2.27,2.27,0,0,1-.61-1.66,2.81,2.81,0,0,1,1-2.25,4.33,4.33,0,0,1,2.85-.85,9.87,9.87,0,0,1,3.54.65v1.8a8.32,8.32,0,0,0-3.19-.68c-1.51,0-2.26.39-2.26,1.17a1,1,0,0,0,.43.86,2.51,2.51,0,0,0,1.09.45c.44.09.91.19,1.41.32a12.37,12.37,0,0,1,1.41.42,2.3,2.3,0,0,1,1.53,2.27,2.66,2.66,0,0,1-1.06,2.19,4.78,4.78,0,0,1-3,.81,8.73,8.73,0,0,1-3.76-.73Z"/><path class="cls-3" d="M67.31,277.14a8.82,8.82,0,0,0,3.53.77c1.52,0,2.29-.37,2.29-1.12a1,1,0,0,0-.61-.88,5.69,5.69,0,0,0-1.46-.47c-.57-.12-1.14-.25-1.71-.41a3.11,3.11,0,0,1-1.45-.86,2.27,2.27,0,0,1-.61-1.66,2.81,2.81,0,0,1,1-2.25,4.32,4.32,0,0,1,2.84-.85,9.89,9.89,0,0,1,3.55.65v1.8a8.32,8.32,0,0,0-3.18-.68c-1.52,0-2.27.39-2.27,1.17a1,1,0,0,0,.43.86,2.51,2.51,0,0,0,1.09.45c.44.09.91.19,1.41.32a11.79,11.79,0,0,1,1.41.42,2.31,2.31,0,0,1,1.09.81,2.36,2.36,0,0,1,.43,1.46,2.65,2.65,0,0,1-1,2.19,4.78,4.78,0,0,1-3,.81,8.73,8.73,0,0,1-3.76-.73Z"/><path class="cls-3" d="M87.09,279.49H85.2l-.34-1.85a3.49,3.49,0,0,1-3.38,2A3.35,3.35,0,0,1,79.2,279a2.57,2.57,0,0,1-.82-2,2.79,2.79,0,0,1,1.44-2.53,9.87,9.87,0,0,1,4.81-.89v-.76c0-1-.65-1.56-1.93-1.56a8.27,8.27,0,0,0-3.36.77v-1.8a10.27,10.27,0,0,1,3.58-.74,3.84,3.84,0,0,1,2.65.86,2.94,2.94,0,0,1,1,2.3v3.88Zm-5.15-1.58a2.77,2.77,0,0,0,2-.67,2.32,2.32,0,0,0,.74-1.79v-.72a9.23,9.23,0,0,0-3.29.43,1.44,1.44,0,0,0-1,1.42C80.38,277.47,80.9,277.91,81.94,277.91Z"/><path class="cls-3" d="M92.69,277.1a15.53,15.53,0,0,1,5,.7,2.16,2.16,0,0,1,1.62,2.07c0,1.09-.74,1.91-2.22,2.43a23,23,0,0,1-7.12.79v-1.8c1.16,0,2.18,0,3-.07s1.58-.1,2.12-.18a6.27,6.27,0,0,0,1.3-.28,1.67,1.67,0,0,0,.68-.36.58.58,0,0,0,.19-.44q0-1.26-5.32-1.26l-1.09-1.09.94-2.6A2.48,2.48,0,0,1,90,272.57a2.7,2.7,0,0,1,1.15-2.33,5.46,5.46,0,0,1,3.22-.83,6.13,6.13,0,0,1,2,.29l.68-2h2.16l-1.81,2.49a2.4,2.4,0,0,1,1,2,2.62,2.62,0,0,1-1.16,2.27,5.44,5.44,0,0,1-3.22.82A6.39,6.39,0,0,1,93,275.3Zm1.53-5.92a3.71,3.71,0,0,0-1.69.29,1.07,1.07,0,0,0,0,1.83,3.71,3.71,0,0,0,1.69.29,3.61,3.61,0,0,0,1.67-.29,1.05,1.05,0,0,0,0-1.83A3.61,3.61,0,0,0,94.22,271.18Z"/><path class="cls-3" d="M110.31,274.29c0,.42,0,.74,0,1h-7a3.12,3.12,0,0,0,.79,2.05,2.76,2.76,0,0,0,2,.61,6.33,6.33,0,0,0,3.44-1v1.81a7,7,0,0,1-3.62,1,4.5,4.5,0,0,1-3.35-1.26,4.8,4.8,0,0,1-1.24-3.54,5.91,5.91,0,0,1,1.28-3.94,4.35,4.35,0,0,1,3.51-1.52,4,4,0,0,1,3.17,1.28A5.31,5.31,0,0,1,110.31,274.29Zm-4.41-3.11a2.75,2.75,0,0,0-1.89.55,2.84,2.84,0,0,0-.74,1.9h5a3.06,3.06,0,0,0-.64-1.91A2.35,2.35,0,0,0,105.9,271.18Z"/><path class="cls-6" d="M124.12,272.92v-1.69h9.36v1.69Zm0,3.64v-1.69h9.36v1.69Z"/><path class="cls-5" d="M154.72,269.59h1.85a34.62,34.62,0,0,1-1.49,9.9h-2.23l-1-3.11-1,3.11h-2.23a34.29,34.29,0,0,1-1.5-9.9h1.86a43.11,43.11,0,0,0,.88,8.32l1.76-5.31h.54l1.77,5.31A43.91,43.91,0,0,0,154.72,269.59Z"/><path class="cls-5" d="M167.91,274.29c0,.42,0,.74,0,1h-7a3.12,3.12,0,0,0,.79,2.05,2.76,2.76,0,0,0,2,.61,6.33,6.33,0,0,0,3.44-1v1.81a7,7,0,0,1-3.62,1,4.5,4.5,0,0,1-3.35-1.26,4.8,4.8,0,0,1-1.24-3.54,5.91,5.91,0,0,1,1.28-3.94,4.35,4.35,0,0,1,3.51-1.52,4,4,0,0,1,3.17,1.28A5.31,5.31,0,0,1,167.91,274.29Zm-4.41-3.11a2.75,2.75,0,0,0-1.89.55,2.84,2.84,0,0,0-.74,1.9h5a3.06,3.06,0,0,0-.64-1.91A2.35,2.35,0,0,0,163.5,271.18Z"/><path class="cls-5" d="M177.42,277.91a4.18,4.18,0,0,0,2.25-.67V279a5.68,5.68,0,0,1-2.61.66,3.39,3.39,0,0,1-2.66-1,4.43,4.43,0,0,1-.94-3.08v-7.68h-3.37v-1.7h5.27v9.24C175.36,277.08,176.05,277.91,177.42,277.91Z"/><path class="cls-5" d="M188.92,273.18a2.09,2.09,0,0,0-.51-1.6,3.26,3.26,0,0,0-3.78.29,4.53,4.53,0,0,0-.59,2.67,4.1,4.1,0,0,0,.64,2.62,2.8,2.8,0,0,0,2.22.75,6.12,6.12,0,0,0,3.35-1v1.81a7,7,0,0,1-3.62,1,4.44,4.44,0,0,1-3.35-1.29,5,5,0,0,1-1.24-3.56,5.88,5.88,0,0,1,1.24-4,4.8,4.8,0,0,1,6.44-.38,3.45,3.45,0,0,1,1.18,2.71Z"/><path class="cls-5" d="M197.74,279.67a4.08,4.08,0,0,1-3.19-1.26,5.21,5.21,0,0,1-1.13-3.56,5.9,5.9,0,0,1,1.24-4,4.3,4.3,0,0,1,3.44-1.45,4,4,0,0,1,3.18,1.27,5.14,5.14,0,0,1,1.14,3.56,5.93,5.93,0,0,1-1.24,4A4.3,4.3,0,0,1,197.74,279.67Zm-1.76-2.5a2.91,2.91,0,0,0,3.88,0,6.43,6.43,0,0,0,0-5.25,2.91,2.91,0,0,0-3.88,0,6.43,6.43,0,0,0,0,5.25Z"/><path class="cls-5" d="M212.3,269.41a1.78,1.78,0,0,1,1.54.73,4.2,4.2,0,0,1,.51,2.35v7h-1.8v-6.76a2.78,2.78,0,0,0-.22-1.27.81.81,0,0,0-.78-.42,1.35,1.35,0,0,0-1.21.82c0,.13,0,.34,0,.63v7h-1.8v-6.76q0-1.59-.9-1.59c-.51,0-.94.38-1.3,1.12v7.23h-1.8v-9.9h1.35l.4,1.62a3.78,3.78,0,0,1,1-1.33,2,2,0,0,1,1.25-.47,1.66,1.66,0,0,1,1.58,1.35A2.35,2.35,0,0,1,212.3,269.41Z"/><path class="cls-5" d="M225.51,274.29c0,.42,0,.74,0,1h-7a3.06,3.06,0,0,0,.78,2.05,2.76,2.76,0,0,0,2,.61,6.33,6.33,0,0,0,3.44-1v1.81a7,7,0,0,1-3.62,1,4.5,4.5,0,0,1-3.35-1.26,4.8,4.8,0,0,1-1.24-3.54,5.91,5.91,0,0,1,1.28-3.94,4.35,4.35,0,0,1,3.51-1.52,4,4,0,0,1,3.17,1.28A5.31,5.31,0,0,1,225.51,274.29Zm-4.41-3.11a2.75,2.75,0,0,0-1.89.55,2.84,2.84,0,0,0-.73,1.9h5a3.06,3.06,0,0,0-.64-1.91A2.35,2.35,0,0,0,221.1,271.18Z"/><path class="cls-6" d="M232.64,273.91a11.82,11.82,0,0,0,2.83,8.1h-2a14.78,14.78,0,0,1-2.23-3.8,11.13,11.13,0,0,1-.69-3.93,12.45,12.45,0,0,1,.69-4.22,14.55,14.55,0,0,1,2.23-3.89h2A11.36,11.36,0,0,0,232.64,273.91Z"/><path class="cls-10" d="M245.42,269.41a2.68,2.68,0,0,1,2,.78,3.17,3.17,0,0,1,.75,2.3v7H246.3v-6.76c0-1.13-.51-1.69-1.53-1.69a2.27,2.27,0,0,0-1.37.47,10.39,10.39,0,0,0-1.63,1.67v6.31h-1.91v-9.9h1.44l.34,2.27A4.43,4.43,0,0,1,245.42,269.41Z"/><path class="cls-10" d="M259.89,279.49H258l-.34-1.85a3.49,3.49,0,0,1-3.38,2A3.35,3.35,0,0,1,252,279a2.57,2.57,0,0,1-.82-2,2.79,2.79,0,0,1,1.44-2.53,9.87,9.87,0,0,1,4.81-.89v-.76c0-1-.65-1.56-1.93-1.56a8.27,8.27,0,0,0-3.36.77v-1.8a10.27,10.27,0,0,1,3.58-.74,3.84,3.84,0,0,1,2.65.86,2.94,2.94,0,0,1,1,2.3v3.88Zm-5.15-1.58a2.77,2.77,0,0,0,1.95-.67,2.32,2.32,0,0,0,.74-1.79v-.72a9.23,9.23,0,0,0-3.29.43,1.44,1.44,0,0,0-1,1.42C253.18,277.47,253.7,277.91,254.74,277.91Z"/><path class="cls-10" d="M269.9,269.41a1.76,1.76,0,0,1,1.54.73,4.2,4.2,0,0,1,.51,2.35v7h-1.8v-6.76a2.78,2.78,0,0,0-.22-1.27.82.82,0,0,0-.79-.42,1.34,1.34,0,0,0-1.2.82c0,.13,0,.34,0,.63v7h-1.8v-6.76q0-1.59-.9-1.59c-.51,0-.94.38-1.3,1.12v7.23h-1.8v-9.9h1.35l.4,1.62a3.69,3.69,0,0,1,1-1.33,2,2,0,0,1,1.24-.47,1.66,1.66,0,0,1,1.58,1.35A2.35,2.35,0,0,1,269.9,269.41Z"/><path class="cls-10" d="M283.11,274.29c0,.42,0,.74,0,1h-7a3.12,3.12,0,0,0,.79,2.05,2.76,2.76,0,0,0,1.95.61,6.33,6.33,0,0,0,3.44-1v1.81a7,7,0,0,1-3.62,1,4.5,4.5,0,0,1-3.35-1.26,4.8,4.8,0,0,1-1.24-3.54,5.91,5.91,0,0,1,1.28-3.94,4.35,4.35,0,0,1,3.51-1.52,4,4,0,0,1,3.17,1.28A5.31,5.31,0,0,1,283.11,274.29Zm-4.41-3.11a2.75,2.75,0,0,0-1.89.55,2.84,2.84,0,0,0-.74,1.9h5a3.06,3.06,0,0,0-.64-1.91A2.35,2.35,0,0,0,278.7,271.18Z"/><path class="cls-6" d="M289.92,274.28a11.88,11.88,0,0,0-2.83-8.11h2a14.64,14.64,0,0,1,2.22,3.81,10.91,10.91,0,0,1,.7,3.93,12.21,12.21,0,0,1-.7,4.22,14,14,0,0,1-2.22,3.88h-2A11.31,11.31,0,0,0,289.92,274.28Z"/><path class="cls-5" d="M37.25,308.74a3.34,3.34,0,0,1,2.81,1.33,6.06,6.06,0,0,1,1,3.71,6.46,6.46,0,0,1-1,3.84,3.57,3.57,0,0,1-5.71-.09v4.71H32.44V308.92h1.45l.3,1.62A3.26,3.26,0,0,1,37.25,308.74Zm-2.37,7.77a2.05,2.05,0,0,0,1.83.8,2.08,2.08,0,0,0,1.83-.76,4.7,4.7,0,0,0,.53-2.59,5.25,5.25,0,0,0-.53-2.73,2.05,2.05,0,0,0-1.83-.8,2.11,2.11,0,0,0-1.83.76,4.72,4.72,0,0,0-.53,2.59A5.22,5.22,0,0,0,34.88,316.51Z"/><path class="cls-5" d="M53,310.65a8.43,8.43,0,0,0-4.83,1.3v5.18H52v1.69H43.71v-1.69h2.6v-6.52H44.25v-1.69h3.5l.35,2a6,6,0,0,1,2.23-1.72,6.38,6.38,0,0,1,2.71-.63Z"/><path class="cls-5" d="M61.21,317.13H64v1.69H55.7v-1.69h3.6v-6.52H56.24v-1.69h5Zm.23-12.55v2.63H59.07v-2.63Z"/><path class="cls-5" d="M72.62,308.74a2.68,2.68,0,0,1,2,.78,3.17,3.17,0,0,1,.75,2.3v7H73.5v-6.77c0-1.12-.51-1.69-1.53-1.69a2.28,2.28,0,0,0-1.37.48A10.67,10.67,0,0,0,69,312.5v6.32H67.06v-9.9H68.5l.34,2.27A4.43,4.43,0,0,1,72.62,308.74Z"/><path class="cls-5" d="M86.57,310.61H82.39v4.84a1.79,1.79,0,0,0,.47,1.34,2.25,2.25,0,0,0,1.57.45,5.59,5.59,0,0,0,2.14-.42v1.8a7.64,7.64,0,0,1-2.34.38,3.85,3.85,0,0,1-2.79-.92,3.16,3.16,0,0,1-1-2.37v-5.1H78.35v-1.22l2.14-.47.41-2.21h1.49v2.21h4.18Z"/><path class="cls-6" d="M94.4,313.24a11.85,11.85,0,0,0,2.83,8.1h-2A15,15,0,0,1,93,317.53a11.13,11.13,0,0,1-.69-3.93,12.39,12.39,0,0,1,.69-4.21,14.55,14.55,0,0,1,2.23-3.89h2A11.36,11.36,0,0,0,94.4,313.24Z"/><path class="cls-3" d="M108.62,308.74a1.74,1.74,0,0,1,1.54.73,4.2,4.2,0,0,1,.51,2.35v7h-1.8v-6.77a2.84,2.84,0,0,0-.22-1.27.81.81,0,0,0-.78-.42,1.36,1.36,0,0,0-1.21.83c0,.13,0,.34,0,.63v7h-1.8v-6.77c0-1.05-.3-1.58-.9-1.58s-.94.37-1.3,1.11v7.24h-1.8v-9.9h1.35l.4,1.62a3.52,3.52,0,0,1,1-1.33,2,2,0,0,1,1.24-.47c.75,0,1.28.45,1.58,1.35A2.34,2.34,0,0,1,108.62,308.74Z"/><path class="cls-3" d="M121.83,313.62c0,.42,0,.74,0,.95h-7a3,3,0,0,0,.78,2.05,2.77,2.77,0,0,0,2,.62,6.33,6.33,0,0,0,3.44-1V318a6.94,6.94,0,0,1-3.62,1,4.5,4.5,0,0,1-3.35-1.26,4.86,4.86,0,0,1-1.24-3.54,5.94,5.94,0,0,1,1.28-3.95,4.34,4.34,0,0,1,3.51-1.51,4,4,0,0,1,3.17,1.28A5.31,5.31,0,0,1,121.83,313.62Zm-4.41-3.12a2.81,2.81,0,0,0-1.89.55,2.87,2.87,0,0,0-.73,1.9h5a3.1,3.1,0,0,0-.64-1.91A2.4,2.4,0,0,0,117.42,310.5Z"/><path class="cls-3" d="M124.91,316.46a8.67,8.67,0,0,0,3.53.78c1.52,0,2.29-.37,2.29-1.12a1,1,0,0,0-.61-.88,6.1,6.1,0,0,0-1.46-.48c-.57-.11-1.14-.25-1.71-.4a3.13,3.13,0,0,1-1.45-.87,2.26,2.26,0,0,1-.61-1.65,2.79,2.79,0,0,1,1-2.25,4.26,4.26,0,0,1,2.84-.85,9.89,9.89,0,0,1,3.55.65v1.8a8.16,8.16,0,0,0-3.19-.69c-1.51,0-2.26.4-2.26,1.17a1,1,0,0,0,.43.87,2.64,2.64,0,0,0,1.09.45c.44.08.91.19,1.41.31s1,.27,1.41.43a2.23,2.23,0,0,1,1.09.81,2.33,2.33,0,0,1,.43,1.45,2.62,2.62,0,0,1-1,2.19,4.72,4.72,0,0,1-3,.82,8.58,8.58,0,0,1-3.76-.74Z"/><path class="cls-3" d="M136.43,316.46a8.67,8.67,0,0,0,3.53.78c1.52,0,2.28-.37,2.28-1.12a1,1,0,0,0-.6-.88,6.1,6.1,0,0,0-1.46-.48c-.57-.11-1.14-.25-1.71-.4a3.13,3.13,0,0,1-1.45-.87,2.26,2.26,0,0,1-.61-1.65,2.79,2.79,0,0,1,1-2.25,4.27,4.27,0,0,1,2.85-.85,9.87,9.87,0,0,1,3.54.65v1.8a8.16,8.16,0,0,0-3.19-.69c-1.51,0-2.26.4-2.26,1.17a1,1,0,0,0,.43.87,2.64,2.64,0,0,0,1.09.45c.44.08.91.19,1.41.31s1,.27,1.41.43a2.23,2.23,0,0,1,1.09.81,2.34,2.34,0,0,1,.44,1.45,2.63,2.63,0,0,1-1.06,2.19,4.72,4.72,0,0,1-3,.82,8.58,8.58,0,0,1-3.76-.74Z"/><path class="cls-3" d="M156.21,318.82h-1.89L154,317a3.51,3.51,0,0,1-3.38,2,3.29,3.29,0,0,1-2.28-.73,2.54,2.54,0,0,1-.82-2,2.78,2.78,0,0,1,1.44-2.53,9.87,9.87,0,0,1,4.81-.89v-.76c0-1-.65-1.57-1.93-1.57a8.21,8.21,0,0,0-3.37.78v-1.8a10.37,10.37,0,0,1,3.59-.74,3.86,3.86,0,0,1,2.65.86,2.91,2.91,0,0,1,1,2.29v3.89Zm-5.15-1.58a2.77,2.77,0,0,0,1.95-.68,2.31,2.31,0,0,0,.74-1.79v-.72a9.47,9.47,0,0,0-3.29.43,1.45,1.45,0,0,0-1,1.43C149.5,316.79,150,317.24,151.06,317.24Z"/><path class="cls-3" d="M161.81,316.43a15.53,15.53,0,0,1,4.95.7,2.16,2.16,0,0,1,1.62,2.07q0,1.64-2.22,2.43a23,23,0,0,1-7.12.79v-1.8c1.16,0,2.18,0,3.05-.07s1.57-.11,2.11-.18a7.13,7.13,0,0,0,1.31-.28,1.67,1.67,0,0,0,.68-.36.59.59,0,0,0,.19-.44q0-1.26-5.32-1.26l-1.08-1.1.93-2.59a2.48,2.48,0,0,1-1.78-2.45,2.69,2.69,0,0,1,1.15-2.32,5.46,5.46,0,0,1,3.22-.83,6.13,6.13,0,0,1,2,.29l.68-2h2.16l-1.82,2.48a2.42,2.42,0,0,1,1,2.05,2.63,2.63,0,0,1-1.15,2.28,5.46,5.46,0,0,1-3.22.82,6.39,6.39,0,0,1-1.06-.07Zm1.53-5.93a3.71,3.71,0,0,0-1.69.29,1,1,0,0,0-.52.92,1,1,0,0,0,.52.92,5,5,0,0,0,3.37,0,1,1,0,0,0,.52-.92,1,1,0,0,0-.52-.92A3.69,3.69,0,0,0,163.34,310.5Z"/><path class="cls-3" d="M179.43,313.62c0,.42,0,.74,0,.95h-7a3.09,3.09,0,0,0,.79,2.05,2.77,2.77,0,0,0,1.95.62,6.33,6.33,0,0,0,3.44-1V318a6.94,6.94,0,0,1-3.62,1,4.5,4.5,0,0,1-3.35-1.26,4.82,4.82,0,0,1-1.24-3.54,5.94,5.94,0,0,1,1.28-3.95,4.34,4.34,0,0,1,3.51-1.51,4,4,0,0,1,3.17,1.28A5.31,5.31,0,0,1,179.43,313.62ZM175,310.5a2.81,2.81,0,0,0-1.89.55,2.92,2.92,0,0,0-.74,1.9h5a3.1,3.1,0,0,0-.64-1.91A2.4,2.4,0,0,0,175,310.5Z"/><path class="cls-9" d="M186.24,313.6a11.9,11.9,0,0,0-2.83-8.1h2a14.64,14.64,0,0,1,2.22,3.81,10.91,10.91,0,0,1,.7,3.93,12.12,12.12,0,0,1-.7,4.21,14.09,14.09,0,0,1-2.22,3.89h-2A11.4,11.4,0,0,0,186.24,313.6Z"/><path class="cls-7" d="M40.33,228.29c-1.47,0-2.2.51-2.2,1.53v.54h4.45V232H38.13v8.21h-1.9V232H33.8v-1.6h2.43V230a3,3,0,0,1,1-2.41,4.28,4.28,0,0,1,2.85-.87,8.12,8.12,0,0,1,2.48.38v1.65A6.44,6.44,0,0,0,40.33,228.29Z"/><path class="cls-7" d="M51.15,238.48h2.77v1.69H45.64v-1.69h3.6V232H46.18v-1.69h5Zm.23-12.55v2.63H49v-2.63Z"/><path class="cls-7" d="M62.56,230.09a2.73,2.73,0,0,1,2,.77,3.21,3.21,0,0,1,.75,2.31v7H63.44V233.4c0-1.13-.51-1.69-1.53-1.69a2.28,2.28,0,0,0-1.37.48,10.21,10.21,0,0,0-1.64,1.66v6.32H57v-9.9h1.44l.34,2.27A4.43,4.43,0,0,1,62.56,230.09Z"/><path class="cls-7" d="M77,240.17H75.14l-.34-1.85a3.52,3.52,0,0,1-3.38,2,3.27,3.27,0,0,1-2.28-.73,2.57,2.57,0,0,1-.82-2,2.78,2.78,0,0,1,1.44-2.52,9.83,9.83,0,0,1,4.8-.9v-.75c0-1-.64-1.57-1.92-1.57a8.21,8.21,0,0,0-3.37.78v-1.8a10.09,10.09,0,0,1,3.58-.74,3.86,3.86,0,0,1,2.66.85,2.93,2.93,0,0,1,1,2.3v3.89Zm-5.15-1.59a2.77,2.77,0,0,0,2-.67,2.32,2.32,0,0,0,.73-1.79v-.72a9.2,9.2,0,0,0-3.28.43,1.45,1.45,0,0,0-1,1.42C70.32,238.14,70.84,238.58,71.88,238.58Z"/><path class="cls-7" d="M86.72,238.58a4.25,4.25,0,0,0,2.25-.66v1.76a5.58,5.58,0,0,1-2.62.67,3.39,3.39,0,0,1-2.65-1,4.42,4.42,0,0,1-.94-3.07v-7.69H79.39v-1.69h5.27v9.23C84.66,237.75,85.35,238.58,86.72,238.58Z"/><path class="cls-10" d="M108.64,230.09a2.73,2.73,0,0,1,2,.77,3.21,3.21,0,0,1,.75,2.31v7h-1.91V233.4c0-1.13-.51-1.69-1.53-1.69a2.28,2.28,0,0,0-1.37.48,10.21,10.21,0,0,0-1.64,1.66v6.32h-1.9v-9.9h1.44l.34,2.27A4.43,4.43,0,0,1,108.64,230.09Z"/><path class="cls-10" d="M123.11,240.17h-1.89l-.34-1.85a3.52,3.52,0,0,1-3.38,2,3.27,3.27,0,0,1-2.28-.73,2.57,2.57,0,0,1-.82-2,2.78,2.78,0,0,1,1.44-2.52,9.83,9.83,0,0,1,4.8-.9v-.75c0-1-.64-1.57-1.92-1.57a8.21,8.21,0,0,0-3.37.78v-1.8a10.1,10.1,0,0,1,3.59-.74,3.85,3.85,0,0,1,2.65.85,2.93,2.93,0,0,1,1,2.3v3.89ZM118,238.58a2.77,2.77,0,0,0,2-.67,2.32,2.32,0,0,0,.73-1.79v-.72a9.2,9.2,0,0,0-3.28.43,1.45,1.45,0,0,0-1,1.42C116.4,238.14,116.92,238.58,118,238.58Z"/><path class="cls-10" d="M133.12,230.09a1.75,1.75,0,0,1,1.54.73,4.18,4.18,0,0,1,.51,2.35v7h-1.8V233.4a2.81,2.81,0,0,0-.22-1.27.83.83,0,0,0-.79-.42,1.35,1.35,0,0,0-1.2.83c0,.13,0,.34,0,.63v7h-1.81V233.4c0-1.06-.3-1.58-.89-1.58s-.94.37-1.3,1.11v7.24h-1.8v-9.9h1.35l.39,1.62a3.74,3.74,0,0,1,1-1.33,2,2,0,0,1,1.24-.47,1.65,1.65,0,0,1,1.59,1.35A2.34,2.34,0,0,1,133.12,230.09Z"/><path class="cls-10" d="M146.33,235c0,.42,0,.73,0,.95h-7a3.09,3.09,0,0,0,.79,2.05,2.73,2.73,0,0,0,1.95.61,6.43,6.43,0,0,0,3.44-1v1.8a6.94,6.94,0,0,1-3.62,1,4.49,4.49,0,0,1-3.35-1.26,4.83,4.83,0,0,1-1.24-3.55,5.91,5.91,0,0,1,1.28-3.94,4.34,4.34,0,0,1,3.51-1.51,4,4,0,0,1,3.17,1.28A5.31,5.31,0,0,1,146.33,235Zm-4.41-3.12a2.81,2.81,0,0,0-1.89.55,2.87,2.87,0,0,0-.74,1.9h5a3.08,3.08,0,0,0-.64-1.91A2.37,2.37,0,0,0,141.92,231.85Z"/><path class="cls-6" d="M160.14,233.6v-1.69h9.36v1.69Zm0,3.64v-1.7h9.36v1.7Z"/><path class="cls-6" d="M185.66,225.77H188l-2.36,3.42h1.46v3h-2.78v-3Zm6.68,0L190,229.19h1.46v3h-2.77v-3l1.38-3.42Z"/><path class="cls-9" d="M202.15,232.75a4.44,4.44,0,0,0-.65-2.71,2.45,2.45,0,0,0-2-.82,2.34,2.34,0,0,0-2.18,1.05,7.39,7.39,0,0,0-.63,3.6,7.31,7.31,0,0,0,.64,3.6,2.4,2.4,0,0,0,2.22,1,7,7,0,0,0,3.8-1.22v2a8.9,8.9,0,0,1-4,1,4.13,4.13,0,0,1-3.46-1.61,7.19,7.19,0,0,1-1.24-4.48,8.3,8.3,0,0,1,1.35-5,4.38,4.38,0,0,1,3.74-1.82,4.18,4.18,0,0,1,3.31,1.43,5.82,5.82,0,0,1,1.23,3.93Z"/><path class="cls-9" d="M210.72,240.35a4.05,4.05,0,0,1-3.19-1.27,5.13,5.13,0,0,1-1.13-3.55,5.91,5.91,0,0,1,1.24-4,4.3,4.3,0,0,1,3.44-1.44,4,4,0,0,1,3.18,1.27,5.12,5.12,0,0,1,1.14,3.55,5.92,5.92,0,0,1-1.25,4A4.28,4.28,0,0,1,210.72,240.35Zm-1.77-2.5a3,3,0,0,0,3.89,0,6.46,6.46,0,0,0,0-5.26,2.93,2.93,0,0,0-3.89,0,6.46,6.46,0,0,0,0,5.26Z"/><path class="cls-9" d="M224.7,226.85h1.91v13.32h-1.44l-.31-1.62a3.25,3.25,0,0,1-3.05,1.8A3.3,3.3,0,0,1,219,239a6,6,0,0,1-1-3.71,6.39,6.39,0,0,1,1-3.84,3.56,3.56,0,0,1,5.7.1Zm-4.18,11a2.53,2.53,0,0,0,3.65,0,4.64,4.64,0,0,0,.53-2.59,5.15,5.15,0,0,0-.53-2.73,2,2,0,0,0-1.82-.8,2.06,2.06,0,0,0-1.83.76,4.64,4.64,0,0,0-.53,2.59A5.15,5.15,0,0,0,220.52,237.86Z"/><path class="cls-9" d="M238.49,235c0,.42,0,.73,0,.95h-7a3.09,3.09,0,0,0,.79,2.05,2.73,2.73,0,0,0,1.95.61,6.43,6.43,0,0,0,3.44-1v1.8a6.94,6.94,0,0,1-3.62,1,4.49,4.49,0,0,1-3.35-1.26,4.83,4.83,0,0,1-1.24-3.55,5.91,5.91,0,0,1,1.28-3.94,4.34,4.34,0,0,1,3.51-1.51,4,4,0,0,1,3.17,1.28A5.31,5.31,0,0,1,238.49,235Zm-4.41-3.12a2.81,2.81,0,0,0-1.89.55,2.87,2.87,0,0,0-.74,1.9h5a3.08,3.08,0,0,0-.64-1.91A2.37,2.37,0,0,0,234.08,231.85Z"/><path class="cls-9" d="M248.23,232.75a4.44,4.44,0,0,0-.65-2.71,2.45,2.45,0,0,0-2-.82,2.34,2.34,0,0,0-2.18,1.05,7.39,7.39,0,0,0-.63,3.6,7.31,7.31,0,0,0,.64,3.6,2.4,2.4,0,0,0,2.22,1,7,7,0,0,0,3.8-1.22v2a8.9,8.9,0,0,1-4,1,4.13,4.13,0,0,1-3.46-1.61,7.19,7.19,0,0,1-1.24-4.48,8.3,8.3,0,0,1,1.35-5,4.38,4.38,0,0,1,3.74-1.82,4.18,4.18,0,0,1,3.31,1.43,5.82,5.82,0,0,1,1.23,3.93Z"/><path class="cls-9" d="M261.35,240.17h-1.89l-.34-1.85a3.51,3.51,0,0,1-3.39,2,3.26,3.26,0,0,1-2.27-.73,2.57,2.57,0,0,1-.82-2,2.78,2.78,0,0,1,1.44-2.52,9.85,9.85,0,0,1,4.81-.9v-.75c0-1-.65-1.57-1.93-1.57a8.17,8.17,0,0,0-3.37.78v-1.8a10.14,10.14,0,0,1,3.59-.74,3.85,3.85,0,0,1,2.65.85,2.93,2.93,0,0,1,1,2.3v3.89Zm-5.15-1.59a2.78,2.78,0,0,0,1.95-.67,2.32,2.32,0,0,0,.74-1.79v-.72a9.23,9.23,0,0,0-3.29.43,1.45,1.45,0,0,0-1,1.42C254.64,238.14,255.16,238.58,256.2,238.58Z"/><path class="cls-9" d="M269.11,230.09a3.33,3.33,0,0,1,2.81,1.33,6,6,0,0,1,1,3.71,6.41,6.41,0,0,1-1,3.83,3.56,3.56,0,0,1-5.71-.09v4.72H264.3V230.27h1.44l.31,1.62A3.26,3.26,0,0,1,269.11,230.09Zm-2.37,7.77a2,2,0,0,0,1.83.8,2.08,2.08,0,0,0,1.83-.76,4.72,4.72,0,0,0,.53-2.59,5.25,5.25,0,0,0-.53-2.73,2.54,2.54,0,0,0-3.66,0,4.72,4.72,0,0,0-.53,2.59A5.25,5.25,0,0,0,266.74,237.86Z"/><path class="cls-6" d="M276.44,228.74v-3h2.77v3l-1.39,3.42h-2.29l2.36-3.42Zm4.39-3h2.77v3l-1.39,3.42h-2.28l2.35-3.42h-1.45Z"/><rect class="cls-2" x="132.96" y="359.79" width="350" height="140" rx="12"/><path class="cls-11" d="M145,359.79H471a12,12,0,0,1,12,12v20a0,0,0,0,1,0,0H133a0,0,0,0,1,0,0v-20A12,12,0,0,1,145,359.79Z"/><circle class="cls-3" cx="165.38" cy="375.79" r="9.15"/><circle class="cls-4" cx="190.65" cy="375.79" r="9.15"/><circle class="cls-5" cx="215.92" cy="375.79" r="9.15"/><path class="cls-7" d="M171.64,418.85a3.39,3.39,0,0,1-.9,2.46,4.32,4.32,0,0,1-2.5,1.18v1.71h-1.91v-1.64a13.66,13.66,0,0,1-2.76-.5v-2a9.63,9.63,0,0,0,3.28.7c1.81,0,2.72-.55,2.72-1.66a1.59,1.59,0,0,0-.35-1,2.51,2.51,0,0,0-.9-.66,12.49,12.49,0,0,0-1.23-.43c-.45-.13-.9-.28-1.35-.44a5.77,5.77,0,0,1-1.22-.6,2.55,2.55,0,0,1-.9-1,3.15,3.15,0,0,1-.35-1.53,3.5,3.5,0,0,1,.92-2.53,4.1,4.1,0,0,1,2.5-1.22V408h1.91v1.67a9.4,9.4,0,0,1,2.48.67v2a9.28,9.28,0,0,0-3.42-.87c-1.55,0-2.32.58-2.32,1.73a1.62,1.62,0,0,0,.65,1.38,4.31,4.31,0,0,0,1.57.74q.93.24,1.86.54a3.51,3.51,0,0,1,1.57,1A2.93,2.93,0,0,1,171.64,418.85Z"/><path class="cls-5" d="M191.29,412.32a3.21,3.21,0,0,1,2.75,1.33,6.19,6.19,0,0,1,1,3.71,6.49,6.49,0,0,1-1,3.84,3.39,3.39,0,0,1-5.54-.12v4.74h-2.27V412.5H188l.3,1.66A3.14,3.14,0,0,1,191.29,412.32Zm-.7,8.21a1.8,1.8,0,0,0,1.6-.68,4.15,4.15,0,0,0,.47-2.31,4.66,4.66,0,0,0-.47-2.46,1.77,1.77,0,0,0-1.6-.71,1.86,1.86,0,0,0-1.63.68,4.15,4.15,0,0,0-.47,2.31,4.66,4.66,0,0,0,.47,2.46A1.83,1.83,0,0,0,190.59,420.53Z"/><path class="cls-5" d="M204.47,412.5h2.41l-3.45,10.19c-.74,2.18-2.56,3.27-5.48,3.27v-2a5.75,5.75,0,0,0,2.32-.37,2.13,2.13,0,0,0,1.14-1.18h-.94l-3.34-9.86h2.41l2.46,8.15Z"/><path class="cls-9" d="M227.92,412.5h1.86a34.39,34.39,0,0,1-1.5,9.9h-2.23l-1-3.11-1,3.11h-2.23a34.72,34.72,0,0,1-1.49-9.9h1.85a43.91,43.91,0,0,0,.88,8.32l1.77-5.31h.54l1.76,5.31A43.11,43.11,0,0,0,227.92,412.5Z"/><path class="cls-9" d="M241.12,417.2c0,.42,0,.74,0,.95h-7a3.09,3.09,0,0,0,.78,2.05,2.78,2.78,0,0,0,2,.62,6.39,6.39,0,0,0,3.43-1v1.8a6.9,6.9,0,0,1-3.61,1,4.49,4.49,0,0,1-3.35-1.26,4.83,4.83,0,0,1-1.24-3.55,5.9,5.9,0,0,1,1.27-3.94,4.37,4.37,0,0,1,3.51-1.51A4,4,0,0,1,240,413.6,5.26,5.26,0,0,1,241.12,417.2Zm-4.41-3.12a2.27,2.27,0,0,0-2.63,2.45h5a3.08,3.08,0,0,0-.63-1.91A2.39,2.39,0,0,0,236.71,414.08Z"/><path class="cls-9" d="M250.62,420.82a4.27,4.27,0,0,0,2.25-.67v1.76a5.51,5.51,0,0,1-2.61.67,3.41,3.41,0,0,1-2.65-1,4.47,4.47,0,0,1-1-3.08v-7.69H243.3v-1.69h5.27v9.23C248.57,420,249.25,420.82,250.62,420.82Z"/><path class="cls-9" d="M262.12,416.08a2.1,2.1,0,0,0-.51-1.6,2.5,2.5,0,0,0-1.7-.47,2.47,2.47,0,0,0-2.08.77,4.55,4.55,0,0,0-.58,2.67,4.05,4.05,0,0,0,.64,2.61,2.78,2.78,0,0,0,2.22.76,6.23,6.23,0,0,0,3.35-1v1.8a6.94,6.94,0,0,1-3.62,1,4.4,4.4,0,0,1-3.35-1.3,4.92,4.92,0,0,1-1.24-3.56,5.85,5.85,0,0,1,1.24-4,4.83,4.83,0,0,1,6.44-.38,3.48,3.48,0,0,1,1.17,2.71Z"/><path class="cls-9" d="M270.94,422.58a4,4,0,0,1-3.18-1.27,5.13,5.13,0,0,1-1.14-3.55,5.92,5.92,0,0,1,1.25-4,4.28,4.28,0,0,1,3.43-1.44,4.05,4.05,0,0,1,3.19,1.27,5.11,5.11,0,0,1,1.13,3.55,5.91,5.91,0,0,1-1.24,4A4.3,4.3,0,0,1,270.94,422.58Zm-1.76-2.5a2.93,2.93,0,0,0,3.89,0,6.46,6.46,0,0,0,0-5.26,2.93,2.93,0,0,0-3.89,0,6.46,6.46,0,0,0,0,5.26Z"/><path class="cls-9" d="M285.51,412.32a1.76,1.76,0,0,1,1.54.73,4.18,4.18,0,0,1,.51,2.35v7h-1.8v-6.77a2.79,2.79,0,0,0-.23-1.27.81.81,0,0,0-.78-.42,1.37,1.37,0,0,0-1.21.83,5.1,5.1,0,0,1,0,.63v7h-1.8v-6.77c0-1.05-.3-1.58-.9-1.58s-.93.37-1.29,1.11v7.24h-1.8v-9.9h1.35l.39,1.62a3.63,3.63,0,0,1,1-1.33,2,2,0,0,1,1.24-.47,1.65,1.65,0,0,1,1.59,1.35A2.34,2.34,0,0,1,285.51,412.32Z"/><path class="cls-9" d="M298.72,417.2c0,.42,0,.74,0,.95h-7a3,3,0,0,0,.78,2.05,2.78,2.78,0,0,0,2,.62,6.39,6.39,0,0,0,3.43-1v1.8a6.9,6.9,0,0,1-3.61,1,4.49,4.49,0,0,1-3.35-1.26,4.83,4.83,0,0,1-1.24-3.55,5.9,5.9,0,0,1,1.27-3.94,4.37,4.37,0,0,1,3.51-1.51,4,4,0,0,1,3.17,1.28A5.26,5.26,0,0,1,298.72,417.2Zm-4.41-3.12a2.27,2.27,0,0,0-2.63,2.45h5a3,3,0,0,0-.64-1.91A2.34,2.34,0,0,0,294.31,414.08Z"/><path class="cls-9" d="M304.3,419.43h2.77v3H304.3Z"/><path class="cls-9" d="M317.82,412.32a3.3,3.3,0,0,1,2.8,1.33,6,6,0,0,1,1,3.71,6.34,6.34,0,0,1-1,3.83,3.25,3.25,0,0,1-2.8,1.39,3.29,3.29,0,0,1-2.9-1.48v4.72H313V412.5h1.44l.31,1.62A3.26,3.26,0,0,1,317.82,412.32Zm-2.37,7.77a2.53,2.53,0,0,0,3.65,0,4.64,4.64,0,0,0,.53-2.59,5.15,5.15,0,0,0-.53-2.73,2,2,0,0,0-1.82-.8,2.06,2.06,0,0,0-1.83.76,4.72,4.72,0,0,0-.53,2.59A5.25,5.25,0,0,0,315.45,420.09Z"/><path class="cls-9" d="M331.33,412.5h2.09l-3.31,10.12a4.5,4.5,0,0,1-1.92,2.56,6.66,6.66,0,0,1-3.53.82v-1.8c2,0,3.24-.6,3.63-1.8h-1L324,412.5h2.08l2.61,8.73Z"/><path class="cls-6" d="M164.06,437.35l8.12,4.82-.2,1.17-9.83,4.83.24-1.32,8.49-4.14-7-4.15Z"/><path class="cls-6" d="M194.57,438.65h1.28a43.36,43.36,0,0,1-3.24,9.9h-1.5l-.7-4.5-2.28,4.5H186.6a36.85,36.85,0,0,1,.25-9.9h1.29a44.09,44.09,0,0,0-.48,8.67l3-5.81h.45l.92,5.85A50.77,50.77,0,0,0,194.57,438.65Z"/><path class="cls-6" d="M202,444.6a7.15,7.15,0,0,1-2.86-.61c0,.36,0,.64,0,.83a3,3,0,0,0,.56,2.06,2.63,2.63,0,0,0,2,.61,7.06,7.06,0,0,0,3.51-1l-.2,1.32a7.88,7.88,0,0,1-3.62.92q-3.6,0-3.6-3.75a6.8,6.8,0,0,1,1.66-4.59,5.3,5.3,0,0,1,4.21-1.92,3.27,3.27,0,0,1,2.34.73,2.58,2.58,0,0,1,.75,1.95,3,3,0,0,1-1.27,2.55A5.83,5.83,0,0,1,202,444.6Zm1.35-4.94a3.73,3.73,0,0,0-2.53.88,4.74,4.74,0,0,0-1.46,2.34,7.13,7.13,0,0,0,2.81.57,4,4,0,0,0,2.3-.54,1.86,1.86,0,0,0,.85-1.65C205.32,440.19,204.66,439.66,203.35,439.66Z"/><path class="cls-6" d="M215.27,447.49a4.92,4.92,0,0,0,2.47-.71l-.2,1.28a5.93,5.93,0,0,1-2.67.67,2.61,2.61,0,0,1-2.33-1,4.23,4.23,0,0,1-.31-3.1l1.44-8.18H210l.21-1.18h5l-1.62,9.23Q213,447.49,215.27,447.49Z"/><path class="cls-6" d="M228.14,442.23a2.42,2.42,0,0,0-.23-2,2.1,2.1,0,0,0-1.73-.61,3.37,3.37,0,0,0-2.89,1.43,6.43,6.43,0,0,0-1,3.87,2.63,2.63,0,0,0,.59,2,2.82,2.82,0,0,0,2,.57,6.79,6.79,0,0,0,3.51-1.08l-.23,1.31a7.18,7.18,0,0,1-3.62,1,3.69,3.69,0,0,1-2.69-.91,3.62,3.62,0,0,1-.93-2.69,7.23,7.23,0,0,1,1.57-4.75,4.87,4.87,0,0,1,3.92-1.91,3.26,3.26,0,0,1,2.61,1,3.18,3.18,0,0,1,.56,2.76Z"/><path class="cls-6" d="M235.5,448.73a3.06,3.06,0,0,1-2.61-1.1,4.43,4.43,0,0,1-.61-3.17,7.3,7.3,0,0,1,1.67-4.38,4.7,4.7,0,0,1,3.68-1.61,3.08,3.08,0,0,1,2.61,1.09,4.46,4.46,0,0,1,.63,3.15,7.34,7.34,0,0,1-1.69,4.4A4.71,4.71,0,0,1,235.5,448.73Zm.34-1.24q3.21,0,3.64-4.7a3.5,3.5,0,0,0-.32-2.38,2.19,2.19,0,0,0-1.88-.72q-3.19,0-3.63,4.7a3.41,3.41,0,0,0,.32,2.37A2.17,2.17,0,0,0,235.84,447.49Z"/><path class="cls-6" d="M251.76,438.47c1.28,0,1.75,1,1.4,3l-1.26,7.06h-1.26l1.22-6.92a3.51,3.51,0,0,0,0-1.51.68.68,0,0,0-.73-.5q-1,0-2,1.56l-.05.31-1.26,7.06h-1.26l1.22-6.92c.23-1.3,0-2-.66-2s-1.34.59-2.07,1.77l-1.26,7.11h-1.26l1.74-9.9h1l-.08,1.8c.82-1.32,1.7-2,2.65-2s1.34.55,1.39,1.67A3.08,3.08,0,0,1,251.76,438.47Z"/><path class="cls-6" d="M259.6,444.6a7.15,7.15,0,0,1-2.86-.61c0,.36,0,.64,0,.83a3,3,0,0,0,.56,2.06,2.63,2.63,0,0,0,2,.61,7.06,7.06,0,0,0,3.51-1l-.2,1.32a7.88,7.88,0,0,1-3.62.92q-3.6,0-3.6-3.75a6.8,6.8,0,0,1,1.66-4.59,5.3,5.3,0,0,1,4.21-1.92,3.27,3.27,0,0,1,2.34.73,2.58,2.58,0,0,1,.75,1.95A3,3,0,0,1,263,443.7,5.83,5.83,0,0,1,259.6,444.6Zm1.35-4.94a3.73,3.73,0,0,0-2.53.88,4.74,4.74,0,0,0-1.46,2.34,7.13,7.13,0,0,0,2.81.57,4,4,0,0,0,2.3-.54,1.86,1.86,0,0,0,.85-1.65C262.92,440.19,262.26,439.66,261,439.66Z"/><path class="cls-6" d="M282.7,439.83l-1,5.44a2.27,2.27,0,0,0,.18,1.68,1.89,1.89,0,0,0,1.61.54,6.14,6.14,0,0,0,2.37-.51l-.21,1.3a7.19,7.19,0,0,1-2.45.45,2.53,2.53,0,0,1-2.85-3.3l1-5.6h-2.44l.16-.86,2.5-.32.72-2.22h1l-.39,2.22h4.48l-.22,1.18Z"/><path class="cls-6" d="M293.1,448.73a3.06,3.06,0,0,1-2.61-1.1,4.43,4.43,0,0,1-.61-3.17,7.3,7.3,0,0,1,1.67-4.38,4.7,4.7,0,0,1,3.68-1.61,3.08,3.08,0,0,1,2.61,1.09,4.46,4.46,0,0,1,.63,3.15,7.34,7.34,0,0,1-1.69,4.4A4.71,4.71,0,0,1,293.1,448.73Zm.34-1.24q3.21,0,3.64-4.7a3.5,3.5,0,0,0-.32-2.38,2.19,2.19,0,0,0-1.88-.72q-3.19,0-3.63,4.7a3.41,3.41,0,0,0,.32,2.37A2.17,2.17,0,0,0,293.44,447.49Z"/><path class="cls-6" d="M320.79,441.13a7.81,7.81,0,0,0,.14-1.44c0-1.76-.76-2.65-2.29-2.65a3.34,3.34,0,0,0-2.5,1.13,6.67,6.67,0,0,0-1.54,2.71,11.36,11.36,0,0,0-.47,3.33,4.11,4.11,0,0,0,.58,2.49,2.26,2.26,0,0,0,1.9.75,8.39,8.39,0,0,0,4.1-1.23l-.25,1.44a9.47,9.47,0,0,1-4.19,1.07q-3.57,0-3.57-4.36a11,11,0,0,1,.44-3.05,10.56,10.56,0,0,1,1.19-2.76,6.34,6.34,0,0,1,2-2,4.83,4.83,0,0,1,2.63-.77,3.26,3.26,0,0,1,2.52,1,3.93,3.93,0,0,1,.9,2.77,9.66,9.66,0,0,1-.14,1.62Z"/><path class="cls-6" d="M327.66,448.73a3.06,3.06,0,0,1-2.61-1.1,4.43,4.43,0,0,1-.61-3.17,7.3,7.3,0,0,1,1.67-4.38,4.7,4.7,0,0,1,3.68-1.61,3.08,3.08,0,0,1,2.61,1.09,4.46,4.46,0,0,1,.63,3.15,7.34,7.34,0,0,1-1.69,4.4A4.71,4.71,0,0,1,327.66,448.73Zm.34-1.24q3.21,0,3.64-4.7a3.5,3.5,0,0,0-.32-2.38,2.19,2.19,0,0,0-1.88-.72q-3.19,0-3.63,4.7a3.41,3.41,0,0,0,.32,2.37A2.17,2.17,0,0,0,328,447.49Z"/><path class="cls-6" d="M344.31,435.23h1.32l-2.34,13.32h-1l.07-1.75a3.89,3.89,0,0,1-3.39,1.93,2.83,2.83,0,0,1-2.24-.87,3.7,3.7,0,0,1-.76-2.53,8.73,8.73,0,0,1,1.31-4.86,4,4,0,0,1,3.44-2,2.58,2.58,0,0,1,2.72,1.67Zm-4.86,12.29a2.87,2.87,0,0,0,2.63-1.54,7.87,7.87,0,0,0,.9-4,2.6,2.6,0,0,0-.5-1.76,2.09,2.09,0,0,0-1.59-.54,2.88,2.88,0,0,0-2.63,1.53,7.94,7.94,0,0,0-.9,4,2.51,2.51,0,0,0,.51,1.75A2,2,0,0,0,339.45,447.52Z"/><path class="cls-6" d="M351.76,444.6a7.15,7.15,0,0,1-2.86-.61c0,.36,0,.64,0,.83a3,3,0,0,0,.56,2.06,2.63,2.63,0,0,0,2,.61,7,7,0,0,0,3.5-1l-.19,1.32a7.88,7.88,0,0,1-3.62.92q-3.6,0-3.6-3.75a6.8,6.8,0,0,1,1.66-4.59,5.3,5.3,0,0,1,4.21-1.92,3.27,3.27,0,0,1,2.34.73,2.58,2.58,0,0,1,.75,1.95,3,3,0,0,1-1.27,2.55A5.83,5.83,0,0,1,351.76,444.6Zm1.35-4.94a3.71,3.71,0,0,0-2.53.88,4.74,4.74,0,0,0-1.46,2.34,7.13,7.13,0,0,0,2.81.57,4,4,0,0,0,2.3-.54,1.86,1.86,0,0,0,.85-1.65C355.08,440.19,354.42,439.66,353.11,439.66Z"/><path class="cls-6" d="M366.87,441.13a7.81,7.81,0,0,0,.14-1.44c0-1.76-.76-2.65-2.29-2.65a3.34,3.34,0,0,0-2.5,1.13,6.67,6.67,0,0,0-1.54,2.71,11.36,11.36,0,0,0-.47,3.33,4.11,4.11,0,0,0,.58,2.49,2.26,2.26,0,0,0,1.9.75,8.39,8.39,0,0,0,4.1-1.23l-.25,1.44a9.47,9.47,0,0,1-4.19,1.07q-3.57,0-3.57-4.36a11,11,0,0,1,.44-3.05,10.56,10.56,0,0,1,1.19-2.76,6.34,6.34,0,0,1,2-2,4.83,4.83,0,0,1,2.63-.77,3.26,3.26,0,0,1,2.52,1,3.93,3.93,0,0,1,.9,2.77,9.66,9.66,0,0,1-.14,1.62Z"/><path class="cls-6" d="M376.69,438.47a10.78,10.78,0,0,1,2.79.36l-1.71,9.72h-1.31l.29-1.66a3.91,3.91,0,0,1-3.35,1.84,2.47,2.47,0,0,1-2.24-1.06,4.78,4.78,0,0,1-.5-3.08,7.11,7.11,0,0,1,1.83-4.51A5.58,5.58,0,0,1,376.69,438.47Zm.65,5.16.67-3.83a7.23,7.23,0,0,0-1.5-.16,4,4,0,0,0-3.14,1.25,5.85,5.85,0,0,0-1.34,3.55,3.93,3.93,0,0,0,.26,2.37,1.81,1.81,0,0,0,1.65.71C375.75,447.52,376.89,446.22,377.34,443.63Z"/><path class="cls-6" d="M387.6,438.47a2.81,2.81,0,0,1,2.24.86,3.73,3.73,0,0,1,.77,2.54,8.65,8.65,0,0,1-1.32,4.85,4,4,0,0,1-3.45,2,2.61,2.61,0,0,1-2.7-1.68l-.88,4.92h-1.32l2.36-13.32h1l-.09,1.72A3.88,3.88,0,0,1,387.6,438.47Zm-1.92,9a2.88,2.88,0,0,0,2.64-1.54,7.85,7.85,0,0,0,.9-4,2.62,2.62,0,0,0-.5-1.77,2.06,2.06,0,0,0-1.59-.55,2.86,2.86,0,0,0-2.63,1.53,8,8,0,0,0-.89,4.05,2.52,2.52,0,0,0,.49,1.73A2,2,0,0,0,385.68,447.52Z"/></g></g></svg>