<svg xmlns="http://www.w3.org/2000/svg" viewBox="0 0 20.79 28.97"><defs><style>.cls-1{fill:#22d360;}.cls-1,.cls-4,.cls-6,.cls-7,.cls-8,.cls-9{fill-rule:evenodd;}.cls-2,.cls-9{fill:#1fc158;}.cls-3,.cls-6{fill:#1ba94c;}.cls-4{fill:#178c40;}.cls-5,.cls-8{fill:#1a9e48;}.cls-7{fill:#dfe6ed;}</style></defs><g id="Layer_2" data-name="Layer 2"><g id="Layer_1-2" data-name="Layer 1"><polygon class="cls-1" points="20.48 0 15.48 5 8.48 5 8.48 0 20.48 0"/><rect class="cls-2" x="3.51" y="0.01" width="5" height="12" transform="translate(6.01 -2.49) rotate(45)"/><rect class="cls-3" y="8.48" width="5" height="12"/><polygon class="cls-4" points="20.48 28.93 20.48 28.97 8.48 28.97 8.48 23.97 15.48 23.97 20.46 28.95 20.48 28.93"/><rect class="cls-5" x="3.51" y="16.96" width="5" height="12" transform="translate(-14.47 10.97) rotate(-45)"/><path class="cls-6" d="M14.13,14.46v0H7.46l3-3.64Z"/><polygon class="cls-4" points="20.8 14.48 17.77 18.1 14.15 14.48 20.8 14.48"/><path class="cls-7" d="M14.15,14.48l0,0v0Z"/><path class="cls-8" d="M14.13,14.48v0L10.5,18.13l-3-3.65Z"/><path class="cls-7" d="M14.13,14.46l0,0h0Z"/><path class="cls-6" d="M20.79,14.48H14.15l3.62-3.62,1.37,1.64.3.36a1.63,1.63,0,0,0,.17.2l.41.5Z"/><polygon class="cls-9" points="14.13 6.48 14.13 14.46 10.51 10.84 14.13 6.48"/><polygon class="cls-8" points="17.77 18.1 14.13 22.48 14.13 14.5 14.15 14.48 17.77 18.1"/><polygon class="cls-4" points="14.13 14.5 14.13 22.48 10.51 18.13 14.13 14.5"/><path class="cls-1" d="M17.77,10.86l-3.62,3.62,0,0v-8l3.21,3.86.11.13,0,0Z"/></g></g></svg>