<svg xmlns="http://www.w3.org/2000/svg" viewBox="0 0 120 120"><defs><style>.cls-1{fill:#ffbd44;}.cls-2{fill:#00ca4e;}.cls-3{fill:#ff605c;}.cls-4{fill:#22d360;}.cls-5{fill:#1a9e48;}.cls-6{fill:#b9f4cd;}.cls-7{fill:#fff;}.cls-8{fill:#178c40;}.cls-9{fill:#1fc158;}.cls-10{fill:#39424e;}</style></defs><g id="Layer_2" data-name="Layer 2"><g id="Layer_1-2" data-name="Layer 1"><path class="cls-1" d="M118.24,15.82,104.18,26.6l7-24.61h7Z"/><path class="cls-2" d="M111.21,15.82,97.15,19.57l7-17.58h7Z"/><path class="cls-3" d="M104.18,15.82,90.12,23.09l7-21.1h7Z"/><path class="cls-1" d="M97.21,19.32l-70.78.47-3.54-3.72-.1-13.83,74.3-.5Z"/><path class="cls-4" d="M118.24,118.24h-7L97.15,67l14.06-51.21h7Z"/><path class="cls-5" d="M111.21,118.24h-7L90.12,67l14.06-51.21h7Z"/><path class="cls-4" d="M22.85,93.63h81.33v24.61H22.85Z"/><path class="cls-6" d="M76.05,63.16,22.85,93.63H1.76A10.54,10.54,0,0,0,12.3,104.18H86.6Z"/><path class="cls-4" d="M76.05,63.16V93.63A10.55,10.55,0,0,0,86.6,104.18h7v-41Z"/><path class="cls-6" d="M97.15,15.82l-7,87.76a10.55,10.55,0,0,0,14.06-10V15.82Z"/><path class="cls-7" d="M22.85,15.82V93.63H83.09a10.55,10.55,0,0,0,7,10,10.57,10.57,0,0,0,7-10v-7L86.6,54.73,97.15,22.85v-7Z"/><path class="cls-8" d="M74.73,22.85H52.3L29.88,44.1V65.35L52.3,86.6H74.73L79,69.37l18.18-4V44.1Z"/><path class="cls-9" d="M29.88,22.85H52.3V44.1H29.88Z"/><path class="cls-9" d="M52.3,44.1H74.73V65.35H52.3Z"/><path class="cls-9" d="M29.88,65.35H52.3V86.6H29.88Z"/><path class="cls-9" d="M74.73,22.85H97.15V44.1H74.73Z"/><path class="cls-9" d="M74.73,65.35H97.15V86.6H74.73Z"/><path class="cls-10" d="M118.24,0H22.85a1.76,1.76,0,0,0-1.76,1.76V91.88H1.76A1.75,1.75,0,0,0,0,93.63a12.32,12.32,0,0,0,12.3,12.31H93.63a12.32,12.32,0,0,0,12.31-12.31v-76h3.51v98.9H24.61v-5.27a1.76,1.76,0,1,0-3.52,0v7A1.76,1.76,0,0,0,22.85,120h95.39a1.76,1.76,0,0,0,1.76-1.76V1.76A1.76,1.76,0,0,0,118.24,0ZM102.42,3.52V14.06H24.61V3.52ZM12.3,102.42a8.8,8.8,0,0,1-8.61-7H81.45a12.3,12.3,0,0,0,3.58,7Zm90.12-8.79a8.79,8.79,0,0,1-17.58,0,1.75,1.75,0,0,0-1.75-1.75H24.61V17.58h77.81Zm3.52-90.11h10.54V14.06H105.94Zm7,113V17.58h3.51v98.9Z"/><path class="cls-10" d="M29.88,42.34a1.75,1.75,0,0,0-1.75,1.76V86.6a1.75,1.75,0,0,0,1.75,1.76H97.15a1.76,1.76,0,0,0,1.76-1.76V22.85a1.76,1.76,0,0,0-1.76-1.76H29.88a1.75,1.75,0,0,0-1.75,1.76V37.07a1.76,1.76,0,1,0,3.51,0V24.61H50.55V42.34Zm20.67,3.52V63.59H31.64V45.86ZM95.39,63.59H76.48V45.86H95.39ZM73,63.59H54.06V45.86H73Zm0,3.52V84.84H54.06V67.11Zm-41.33,0H50.55V84.84H31.64ZM76.48,84.84V67.11H95.39V84.84Zm18.91-42.5H76.48V24.61H95.39ZM54.06,24.61H73V42.34H54.06Z"/></g></g></svg>