<svg xmlns="http://www.w3.org/2000/svg" viewBox="0 0 105.26 25"><defs><style>.cls-1,.cls-3{fill:#dfe6ed;}.cls-1,.cls-2,.cls-5,.cls-6{fill-rule:evenodd;}.cls-2{fill:#a3b6b7;}.cls-4{fill:#a3bebf;}.cls-5{fill:#738f93;}.cls-6,.cls-7{fill:#1ba94c;}</style></defs><g id="Layer_2" data-name="Layer 2"><g id="Isolation_Mode" data-name="Isolation Mode"><path class="cls-1" d="M16.57,1V25H.82A.84.84,0,0,1,0,24.18V6.35a.82.82,0,0,1,.51-.77L14.21,0Z"/><path class="cls-2" d="M27.54,5.63a.74.74,0,0,1,.45.68v17.8a.85.85,0,0,1-.8.89H25.45V4.77Z"/><path class="cls-3" d="M39.61,22.07a5.16,5.16,0,0,1-5.31-5.26,5.31,5.31,0,0,1,7.85-4.62A4.77,4.77,0,0,1,44,14l-1.45.85a2.9,2.9,0,0,0-1.18-1.2,3.37,3.37,0,0,0-1.73-.44A3.49,3.49,0,0,0,36,16.81a3.49,3.49,0,0,0,3.64,3.64A3.42,3.42,0,0,0,41.35,20a2.85,2.85,0,0,0,1.17-1.19l1.45.82a4.6,4.6,0,0,1-1.8,1.78A5.11,5.11,0,0,1,39.61,22.07Z"/><path class="cls-3" d="M48.66,22.07A3.73,3.73,0,0,1,46,21a3.85,3.85,0,0,1,0-5.43,3.9,3.9,0,0,1,5.43,0,3.88,3.88,0,0,1,0,5.43A3.73,3.73,0,0,1,48.66,22.07ZM47.05,19.9a2.32,2.32,0,0,0,3.22,0,2.26,2.26,0,0,0,.65-1.64,2.23,2.23,0,0,0-.65-1.64,2.26,2.26,0,0,0-3.87,1.64A2.22,2.22,0,0,0,47.05,19.9Z"/><path class="cls-3" d="M59.65,11.73h1.57V22.05H59.65V20.84a2.93,2.93,0,0,1-2.54,1.23A3.41,3.41,0,0,1,54.56,21a4,4,0,0,1,0-5.42,3.44,3.44,0,0,1,2.55-1.1,3,3,0,0,1,2.54,1.22Zm-3.93,8.19a2.37,2.37,0,0,0,3.28,0,2.44,2.44,0,0,0,0-3.32,2.37,2.37,0,0,0-3.28,0,2.44,2.44,0,0,0,0,3.32Z"/><path class="cls-3" d="M63.68,20.6a5,5,0,0,1-.4-.51,3.9,3.9,0,0,1-.63-2.83,3.41,3.41,0,0,1,1.58-2.37A3.7,3.7,0,0,1,69.52,16a3.67,3.67,0,0,1,.59,2.88,3.88,3.88,0,0,1-1.8,2.47,3.57,3.57,0,0,1-3.53.41l.67-1.33a2.15,2.15,0,0,0,2.06-.27,2.53,2.53,0,0,0,1-1.21,2,2,0,0,0,0-1.5Zm2.82-4.92a2.23,2.23,0,0,0-1.48.39,2.06,2.06,0,0,0-.87,1.11,2.09,2.09,0,0,0,.11,1.52l3.57-2.33A2.14,2.14,0,0,0,66.5,15.68Z"/><path class="cls-4" d="M78.05,22a5.14,5.14,0,0,1-5.28-5.23,5.28,5.28,0,0,1,7.84-4.58A4.73,4.73,0,0,1,82.41,14l-.69.39a3.82,3.82,0,0,0-1.49-1.52,4.27,4.27,0,0,0-2.18-.57,4.33,4.33,0,0,0-3.24,1.3,4.41,4.41,0,0,0-1.27,3.2A4.41,4.41,0,0,0,74.81,20a4.33,4.33,0,0,0,3.24,1.3,4.22,4.22,0,0,0,2.19-.58,3.75,3.75,0,0,0,1.51-1.55l.68.39a4.54,4.54,0,0,1-1.8,1.81A5.07,5.07,0,0,1,78.05,22Z"/><path class="cls-4" d="M90.41,14.63h.74V22h-.74v-1.8a3.38,3.38,0,0,1-1.28,1.32,3.53,3.53,0,0,1-1.84.48,3.74,3.74,0,0,1-3.75-3.78,3.76,3.76,0,0,1,3.75-3.79,3.53,3.53,0,0,1,1.84.48,3.38,3.38,0,0,1,1.28,1.32Zm-5.24,5.82a3.09,3.09,0,0,0,4.36,0,3.17,3.17,0,0,0,0-4.38,3.07,3.07,0,0,0-5.25,2.19A3,3,0,0,0,85.17,20.45Z"/><path class="cls-4" d="M97.23,14.47A3.74,3.74,0,0,1,101,18.26,3.72,3.72,0,0,1,97.23,22a3.48,3.48,0,0,1-1.85-.49,3.37,3.37,0,0,1-1.27-1.35v4.58h-.73V14.63h.73v1.68A3.37,3.37,0,0,1,95.38,15,3.57,3.57,0,0,1,97.23,14.47Zm-2.23,6a2.94,2.94,0,0,0,2.18.9,3,3,0,0,0,2.19-.9,3.14,3.14,0,0,0,0-4.38,3,3,0,0,0-2.19-.9,2.94,2.94,0,0,0-2.18.9,3.14,3.14,0,0,0,0,4.38Z"/><polygon class="cls-5" points="24.18 4.17 24.18 25 21.65 25 21.65 3.14 24.18 4.17"/><polygon class="cls-6" points="20.38 2.54 20.38 25 17.84 25 17.84 1.49 20.38 2.54"/><path class="cls-7" d="M104.78,21.58a1.58,1.58,0,0,1-1.15.47,1.63,1.63,0,0,1-1.16-2.78,1.64,1.64,0,0,1,2.79,1.15A1.59,1.59,0,0,1,104.78,21.58Z"/></g></g></svg>