<svg xmlns="http://www.w3.org/2000/svg" viewBox="0 0 27.99 25"><defs><style>.cls-1{fill:#dfe6ed;}.cls-1,.cls-2,.cls-3,.cls-4{fill-rule:evenodd;}.cls-2{fill:#a3b6b7;}.cls-3{fill:#738f93;}.cls-4{fill:#1ba94c;}</style></defs><g id="Layer_2" data-name="Layer 2"><g id="Isolation_Mode" data-name="Isolation Mode"><path class="cls-1" d="M16.57,1V25H.82A.84.84,0,0,1,0,24.18V6.35a.82.82,0,0,1,.51-.77L14.21,0Z"/><path class="cls-2" d="M27.54,5.63a.74.74,0,0,1,.45.68v17.8a.85.85,0,0,1-.8.89H25.45V4.77Z"/><polygon class="cls-3" points="24.18 4.17 24.18 25 21.65 25 21.65 3.14 24.18 4.17"/><polygon class="cls-4" points="20.38 2.54 20.38 25 17.84 25 17.84 1.49 20.38 2.54"/></g></g></svg>