<svg xmlns="http://www.w3.org/2000/svg" viewBox="0 0 58.06 13.79"><defs><style>.cls-1,.cls-3{fill:#39424e;}.cls-1,.cls-2,.cls-5,.cls-6{fill-rule:evenodd;}.cls-2{fill:#a3b6b7;}.cls-4,.cls-5{fill:#738f93;}.cls-6,.cls-7{fill:#1ba94c;}</style></defs><g id="Layer_2" data-name="Layer 2"><g id="Layer_1-2" data-name="Layer 1"><path class="cls-1" d="M9.14.54V13.79H.45A.46.46,0,0,1,0,13.34V3.5a.45.45,0,0,1,.28-.42L7.84,0Z"/><path class="cls-2" d="M15.19,3.11a.4.4,0,0,1,.25.37V13.3a.47.47,0,0,1-.44.49H14V2.63Z"/><path class="cls-3" d="M21.85,12.17a2.84,2.84,0,0,1-2.93-2.9,2.84,2.84,0,0,1,.83-2.07,2.88,2.88,0,0,1,2.1-.83,2.81,2.81,0,0,1,1.4.36,2.62,2.62,0,0,1,1,1l-.8.47a1.61,1.61,0,0,0-.66-.66,1.8,1.8,0,0,0-.95-.25,1.93,1.93,0,0,0-1.45.57,2,2,0,0,0-.56,1.44,2,2,0,0,0,.56,1.44,1.93,1.93,0,0,0,1.45.57,1.86,1.86,0,0,0,1-.25,1.59,1.59,0,0,0,.65-.66l.8.46a2.62,2.62,0,0,1-1,1A2.84,2.84,0,0,1,21.85,12.17Z"/><path class="cls-3" d="M26.84,12.17a2.08,2.08,0,0,1-1.5-.6,2.15,2.15,0,0,1,0-3,2.17,2.17,0,0,1,3,0,2.15,2.15,0,0,1,0,3A2.07,2.07,0,0,1,26.84,12.17ZM26,11a1.31,1.31,0,1,0-.36-.9A1.21,1.21,0,0,0,26,11Z"/><path class="cls-3" d="M32.9,6.47h.87v5.7H32.9v-.68a1.59,1.59,0,0,1-1.4.68,1.85,1.85,0,0,1-1.4-.61,2.08,2.08,0,0,1-.59-1.49,2.1,2.1,0,0,1,.59-1.5A1.88,1.88,0,0,1,31.5,8a1.61,1.61,0,0,1,1.4.67ZM30.74,11a1.31,1.31,0,0,0,1.8,0,1.36,1.36,0,0,0,0-1.84,1.31,1.31,0,0,0-1.8,0,1.36,1.36,0,0,0,0,1.84Z"/><path class="cls-3" d="M35.13,11.36a2.21,2.21,0,0,1-.23-.28,2.13,2.13,0,0,1-.34-1.56,1.88,1.88,0,0,1,.87-1.31,2.06,2.06,0,0,1,2.92.61,2,2,0,0,1,.32,1.59,2.15,2.15,0,0,1-1,1.36,2,2,0,0,1-2,.23l.37-.74a1.19,1.19,0,0,0,1.14-.15,1.38,1.38,0,0,0,.57-.66,1.09,1.09,0,0,0,0-.83Zm1.55-2.71a1.18,1.18,0,0,0-.81.22,1.13,1.13,0,0,0-.49.61,1.19,1.19,0,0,0,.07.84l2-1.29A1.21,1.21,0,0,0,36.68,8.65Z"/><path class="cls-4" d="M43.05,12.16a2.85,2.85,0,0,1-2.91-2.89,2.85,2.85,0,0,1,2.91-2.89,2.7,2.7,0,0,1,1.41.37,2.52,2.52,0,0,1,1,1l-.37.21a2.14,2.14,0,0,0-.83-.83,2.34,2.34,0,0,0-1.2-.32,2.43,2.43,0,0,0-2.48,2.48,2.47,2.47,0,0,0,3.69,2.16,2,2,0,0,0,.83-.86l.38.22a2.57,2.57,0,0,1-1,1A2.9,2.9,0,0,1,43.05,12.16Z"/><path class="cls-4" d="M49.87,8.07h.41v4.09h-.41v-1a1.8,1.8,0,0,1-.7.72,1.94,1.94,0,0,1-1,.27,2.08,2.08,0,0,1-2.07-2.09A2.08,2.08,0,0,1,48.15,8a1.94,1.94,0,0,1,1,.27,1.86,1.86,0,0,1,.7.72ZM47,11.28a1.63,1.63,0,0,0,1.2.49,1.6,1.6,0,0,0,1.2-.49,1.74,1.74,0,0,0,0-2.42,1.6,1.6,0,0,0-1.2-.49,1.63,1.63,0,0,0-1.2.49,1.74,1.74,0,0,0,0,2.42Z"/><path class="cls-4" d="M53.63,8a2,2,0,0,1,1.47.61,2.13,2.13,0,0,1,0,3,2,2,0,0,1-1.47.61,1.94,1.94,0,0,1-1-.27,1.88,1.88,0,0,1-.7-.75v2.53h-.4V8.07h.4V9a1.88,1.88,0,0,1,1.72-1Zm-1.23,3.3a1.71,1.71,0,0,0,2.41-2.42,1.73,1.73,0,0,0-2.41,0,1.74,1.74,0,0,0,0,2.42Z"/><polygon class="cls-5" points="13.34 2.3 13.34 13.79 11.94 13.79 11.94 1.73 13.34 2.3"/><polygon class="cls-6" points="11.24 1.4 11.24 13.79 9.84 13.79 9.84 0.82 11.24 1.4"/><path class="cls-7" d="M57.8,11.9a.87.87,0,0,1-.64.27.92.92,0,0,1-.9-.9.9.9,0,0,1,.26-.64.84.84,0,0,1,.64-.26.89.89,0,0,1,.9.9A.84.84,0,0,1,57.8,11.9Z"/></g></g></svg>